<svg viewBox="0 0 37 23" xmlns="http://www.w3.org/2000/svg"><g fill-rule="evenodd"><path d="M22.151 10.33c-1.787 1.319-4.377 2.02-6.607 2.02-3.126 0-5.941-1.155-8.072-3.079-.167-.15-.018-.357.183-.24 2.299 1.337 5.14 2.143 8.076 2.143 1.98 0 4.158-.411 6.16-1.261.303-.128.556.2.26.418"/><path d="M22.895 9.482c-.229-.293-1.51-.139-2.087-.07-.174.021-.201-.132-.044-.242 1.023-.718 2.698-.51 2.893-.27.196.242-.051 1.922-1.01 2.724-.147.123-.287.058-.222-.105.216-.539.698-1.745.47-2.037m-2.037-5.434V3.35c0-.106.08-.177.177-.176h3.129c.1 0 .18.072.18.175v.599c0 .1-.085.231-.235.44L22.488 6.7c.602-.014 1.238.076 1.784.383.124.07.157.172.166.273v.745c0 .102-.112.221-.23.16a3.603 3.603 0 00-3.306.005c-.108.058-.222-.059-.222-.162v-.708c0-.113.002-.307.116-.48l1.878-2.693h-1.635c-.1 0-.18-.071-.18-.176M9.447 8.408h-.952a.18.18 0 01-.17-.161V3.362a.18.18 0 01.184-.176h.886a.179.179 0 01.173.164v.638h.018c.231-.617.667-.905 1.253-.905.595 0 .968.288 1.235.905.23-.617.755-.905 1.315-.905.4 0 .835.165 1.101.535.302.411.24 1.007.24 1.531v3.083a.18.18 0 01-.184.176h-.95a.178.178 0 01-.171-.175v-2.59c0-.206.017-.72-.027-.915-.072-.329-.285-.422-.56-.422a.631.631 0 00-.569.401c-.097.247-.089.658-.089.936v2.59a.18.18 0 01-.183.175h-.95a.178.178 0 01-.172-.175v-2.59c0-.545.088-1.347-.587-1.347-.684 0-.657.781-.657 1.347v2.59a.18.18 0 01-.184.175M27.046 4.08c-.702 0-.746.956-.746 1.553 0 .596-.009 1.87.737 1.87.738 0 .773-1.028.773-1.654 0-.412-.018-.905-.142-1.296-.107-.339-.32-.472-.622-.472zm-.009-.997c1.413 0 2.177 1.213 2.177 2.755 0 1.49-.844 2.673-2.177 2.673-1.386 0-2.14-1.213-2.14-2.724 0-1.522.763-2.704 2.14-2.704zm4.009 5.325h-.949a.178.178 0 01-.17-.175l-.002-4.887a.18.18 0 01.183-.16h.883a.18.18 0 01.169.137v.747h.018c.267-.668.64-.987 1.297-.987.426 0 .844.154 1.11.576.25.39.25 1.048.25 1.521v3.074a.18.18 0 01-.183.154h-.954a.18.18 0 01-.17-.154V5.602c0-.535.063-1.316-.595-1.316-.23 0-.444.154-.55.39-.134.299-.152.597-.152.926v2.63a.182.182 0 01-.185.176m-11.722.035a.197.197 0 01-.225.022c-.316-.263-.373-.384-.546-.634-.522.532-.892.692-1.569.692-.8 0-1.424-.495-1.424-1.484 0-.772.418-1.298 1.015-1.555.516-.227 1.237-.268 1.79-.33V5.03c0-.226.017-.494-.116-.69-.116-.175-.339-.247-.534-.247-.363 0-.686.186-.766.571-.016.086-.079.171-.165.175l-.922-.1c-.078-.017-.165-.08-.142-.199.212-1.119 1.222-1.457 2.128-1.457.463 0 1.068.124 1.433.474.464.433.419 1.01.419 1.638v1.483c0 .446.185.642.36.882.06.087.074.19-.004.253-.194.163-.54.463-.73.632l-.002-.002zm-.96-2.32c0 .37.01.68-.178 1.009-.15.268-.391.433-.658.433-.365 0-.58-.279-.58-.69 0-.811.728-.959 1.417-.959v.206zM6.847 8.443a.197.197 0 01-.224.022c-.317-.263-.373-.384-.546-.634-.523.532-.893.692-1.57.692-.8 0-1.424-.495-1.424-1.484 0-.772.419-1.298 1.015-1.555.517-.227 1.238-.268 1.79-.33V5.03c0-.226.018-.494-.116-.69-.116-.175-.338-.247-.534-.247-.363 0-.686.186-.765.571-.016.086-.08.171-.165.175l-.923-.1c-.078-.017-.164-.08-.142-.199.212-1.119 1.223-1.457 2.128-1.457.463 0 1.069.124 1.434.474.463.433.418 1.01.418 1.638v1.483c0 .446.186.642.36.882.06.087.074.19-.003.253a39.8 39.8 0 00-.73.632l-.003-.002zm-.96-2.32c0 .37.01.68-.177 1.009-.151.268-.392.433-.66.433-.364 0-.578-.279-.578-.69 0-.811.727-.959 1.416-.959v.206zm13.493 8.025c-.503 0-.977.162-1.422.488v2.96c.452.34.92.509 1.4.509.976 0 1.464-.658 1.464-1.973 0-1.323-.48-1.984-1.443-1.984zm-1.496-.138c.268-.234.555-.41.86-.53.303-.12.614-.18.932-.18.34 0 .648.063.923.19.276.127.51.311.7.552.192.24.338.532.44.875.103.343.155.73.155 1.161 0 .439-.055.835-.165 1.189-.11.354-.263.654-.461.901-.198.248-.439.44-.722.579a2.127 2.127 0 01-.944.206 2.363 2.363 0 01-1.644-.626v2.483c0 .141-.07.212-.212.212h-.626c-.142 0-.212-.07-.212-.212v-7.14c0-.141.07-.212.212-.212h.467c.141 0 .222.071.244.212l.053.34zm6.662 4.169c.233 0 .477-.046.732-.138a2.77 2.77 0 00.732-.403v-1.082a5.21 5.21 0 00-.557-.1 4.503 4.503 0 00-.568-.038c-.8 0-1.198.307-1.198.923 0 .269.074.476.222.62.149.145.36.218.637.218zm-1.241-3.798l-.08.027a.287.287 0 01-.09.016c-.092 0-.138-.064-.138-.191v-.287c0-.099.014-.168.042-.207a.402.402 0 01.17-.111 3.79 3.79 0 01.838-.239c.332-.06.665-.09.997-.09.672 0 1.167.138 1.486.414.318.276.477.703.477 1.283v3.628c0 .142-.07.213-.212.213h-.456c-.135 0-.212-.067-.234-.202l-.053-.35c-.254.22-.535.39-.843.51-.308.12-.614.18-.918.18-.509 0-.912-.144-1.209-.43-.297-.287-.446-.67-.446-1.151 0-.516.184-.928.552-1.236.368-.307.863-.461 1.485-.461.396 0 .842.06 1.337.18v-.7c0-.382-.085-.651-.255-.806-.17-.156-.467-.234-.89-.234a5.45 5.45 0 00-1.56.244zm7.149 5.399c-.19.489-.412.839-.663 1.051-.25.212-.578.318-.98.318-.227 0-.429-.025-.605-.074a.306.306 0 01-.17-.1c-.036-.047-.053-.12-.053-.218v-.276c0-.134.053-.201.159-.201.035 0 .088.006.159.02.07.015.166.022.286.022.27 0 .478-.064.626-.19.149-.128.283-.362.403-.701l.202-.541-2.047-5.05a.803.803 0 01-.075-.254c0-.085.05-.128.149-.128h.636c.113 0 .191.018.234.053a.572.572 0 01.127.234l1.485 4.116 1.432-4.116c.043-.12.085-.198.128-.234.042-.035.12-.053.233-.053h.594c.099 0 .149.043.149.128a.81.81 0 01-.075.254l-2.334 5.94"/></g></svg>