<svg xmlns="http://www.w3.org/2000/svg" viewBox="0 0 174.3 30"><path d="M8 29.2H.1L26 .8h8.2v28.4h-6V22H17.8l4.1-4.8h6.3V6.5zm39.8 0h-6.3V.8h7.6c3.2.3 6.3-.3 8.8 1.3S62 6.5 62 10.3s-1.6 6.3-3.8 7.6c-2.8 1.9-3.8 1.9-9.5 1.6l3.8-5.7c3.5 0 4.4-2.2 4.4-3.5-.1-2.2-1.9-3.9-4-3.8h-5.2c.1 0 .1 22.7.1 22.7zm66.6 0h-13.5V.8h6.9v22.4h11.7l-5.1 6zm22.4 0h-13.5V.8h7.2v22.4h11.4l-5.1 6zM160.4.3h-.5c-8.1 0-14.7 6.6-14.7 14.7s6.6 14.7 14.7 14.7c7.8 0 14.3-6.8 14.3-15.2.1-7.7-6.1-14.1-13.8-14.2zm-.5 23.7c-4.8-.2-8.6-4.2-8.4-9 0-5.6 4-9 8.4-9 4.7 0 8.4 3.4 8.4 9 0 5.3-3.8 9-8.4 9zM81.2.3H81C72.9.3 66.3 6.9 66.3 15S72.8 29.8 81 29.8c8.1 0 14.6-6.8 14.6-15.2C95.5 6.6 89.1.2 81.2.3zM80.9 24c-4.8-.2-8.6-4.2-8.4-9 0-5.6 4-9 8.4-9 4.7 0 8.4 3.4 8.4 9 0 5.3-3.8 9-8.4 9z"/></svg>