<svg xmlns="http://www.w3.org/2000/svg" viewBox="0 0 136 30"><path d="M130.5 26.5c0-1.4 1.2-2.6 2.6-2.6 1.4 0 2.6 1.1 2.7 2.6 0 1.4-1.2 2.6-2.6 2.6-1.5 0-2.7-1.1-2.7-2.6zm.5 0c0 1.2 1 2.2 2.2 2.2 1.2 0 2.1-1 2.2-2.2 0-1.2-1-2.2-2.2-2.2-1.3.1-2.2 1-2.2 2.2zM5.8 8.6c1.9-1.7 4.2-3.1 6.7-3.1 6.7-.1 12.2 5.3 12.3 11.9v.1c0 6.8-5.5 12.3-12.3 12.3S.2 24.4.2 17.6V0h5.6v8.6zm6.7 15.9c3.8 0 6.9-3.1 6.9-6.9 0-3.8-3.1-6.9-6.9-6.9-3.8 0-6.9 3.1-6.9 6.9 0 3.8 3.1 6.9 6.9 6.9zm22-6.9c0-6.8 5.5-12.2 12.3-12.2 6.8 0 12.2 5.5 12.2 12.3 0 6.7-5.5 12.2-12.2 12.2-6.8-.1-12.3-5.5-12.3-12.3zm12.3 6.9c3.8 0 6.9-3.1 6.9-6.9 0-3.8-3.1-6.9-6.9-6.9-3.8 0-6.9 3.1-6.9 6.9 0 3.8 3.1 6.9 6.9 6.9z"/><path d="M24.5 17.6c0-8.2 4.7-12.2 12.2-12.2h.5v5.4h-.5c-4.4 0-6.6 3.1-6.6 6.9v12h-5.6V17.6zm57-9.8c1.7-1.3 3.1-2.4 5.2-2.4 5.3 0 9.6 4.7 9.6 10.6v13.6H91V16c.1-2.8-2-5.1-4.8-5.3-2.6 0-4.7 2.4-4.7 5.3v13.6h-5.9v-1.8c-1.7 1.4-3.8 2.1-5.9 2.1-6 0-10.8-4.9-10.7-10.8V0h6v5.8h9.1v5.3H65v8.2c-.1 2.9 2.2 5.3 5.1 5.4h.1c3 0 5.4-2.4 5.4-5.4V.3h5.9v7.5z"/><path d="M101.6 19.7c.7 3.8 4.2 6.3 8 5.6 2.3-.4 4.3-2 5.2-4.2h5.4c-2 6.6-8.9 10.3-15.4 8.3-6.6-2-10.3-8.9-8.3-15.4 2-6.6 8.9-10.3 15.4-8.3 6 1.8 9.7 7.8 8.7 14h-19zM115 15c-1.2-3.6-5.1-5.6-8.8-4.4-2.1.7-3.7 2.3-4.4 4.4H115z"/><path d="M120.6 17.6c0-8.2 4.7-12.2 12.2-12.2h.5v5.4h-.5c-4.4 0-6.6 3.1-6.6 6.9v12h-5.6V17.6zm11.3 7.3h1.7c.3 0 .6.2.7.5.1.2.1.4 0 .6-.1.2-.2.4-.4.5.2.1.3.2.3.4v.7c0 .2.1.2.1.2v.2h-.7c0-.1-.1-.2-.1-.3v-.6c0-.2-.2-.3-.4-.3h-.7V28h-.6l.1-3.1zm.7 1.4h.9c.2 0 .4-.2.4-.4s-.1-.3-.4-.3h-.9v.7z"/></svg>