<svg xmlns="http://www.w3.org/2000/svg" viewBox="0 0 144.5 30"><path d="M11.4 21.3c2.4 3.9 6.7 6.3 11.3 6.3 7 0 10.8-6 10.8-6l.5 1.6c-3.2 4.2-9 6.7-15.5 6.7-7.4 0-13.8-3.5-16.8-8.7C.6 19.4 0 17.2 0 15 0 6.7 8.3 0 18.5 0c7.2 0 13 3.1 16.1 7.6l-12.1 7.3 6.9-10.6c-2-1.4-4.4-2.3-6.9-2.4-7.1.1-12.9 5.9-13 13 0 2.2.7 4.5 1.9 6.4zm32.5 0c-.4 2.7 1.4 5.2 4.1 5.6 2.7.4 5.2-1.4 5.6-4.1.4-2.7-1.4-5.2-4.1-5.6-.2 0-.5-.1-.7-.1-2.5.1-4.6 1.9-4.9 4.2zm18.1 0l2.4 8.2h-8.5l-1.6-5.6c-1.1 3.2-4.9 5.6-9.4 5.6-5.4 0-9.7-3.4-9.7-7.6v-.6c.4-3.9 4.6-7 9.7-7 2.7-.1 5.3.9 7.3 2.6l-2.3-7.8H40s1.6-1 8.8-3.6 9.5 3.6 9.5 3.6L62 21.3zm27.2 0v8.2h-8.8v-18c0-1.3-1.1-2.4-2.4-2.4-1 0-1.9.6-2.2 1.5v18.9h-8.6V9.2h-5s7-4.2 9.4-4.2c2.2 0 4.1 1.8 4.2 4 3.4-1.8 6.7-4 9-4 2.4 0 4.3 1.9 4.4 4.3v12zm13.5 0l1.2 4c0 1.7 1.4 3.1 3.2 3.1 1.8 0 3.2-1.4 3.2-3.2v-.4l-1-3.5-3.6-12.4c-.2-1.6-1.6-2.9-3.2-2.9-1.7.1-3.1 1.4-3.4 3.1l3.6 12.2zm13.9 0c-2.2 6.6-9.3 10.2-15.9 8.1-6.6-2.2-10.2-9.3-8.1-15.9 2.2-6.6 9.3-10.2 15.9-8.1 5.2 1.7 8.7 6.5 8.7 11.9 0 1.4-.2 2.7-.6 4zm14.5 0v8.2h-8.6V9.2h-4.8s6.8-4.2 9.2-4.2c2.2 0 4.1 1.8 4.2 4 3.4-1.8 6.7-4 9-4 2.4 0 4.3 1.9 4.4 4.3v20.3h-8.8v-18c0-1.3-1.1-2.4-2.4-2.4-1 0-1.9.6-2.2 1.5v10.6z"/></svg>