<svg xmlns="http://www.w3.org/2000/svg" viewBox="0 0 128 128"><defs><style>.chain-fill{fill:#a3a8b2}</style></defs><g id="chain"><path id="bottom_chain" class="chain-fill" d="M35.4 127.9a35.3 35.3 0 01-25.1-10.3c-14-14-13.7-37.2.7-51.6l14.9-15c14.5-14.5 37.6-14.8 51.7-.7a8 8 0 11-11.3 11.3c-7.8-7.8-20.9-7.5-29.1.7l-14.9 15c-8.2 8.2-8.5 21.2-.7 29s20.8 7.5 29-.7l11-10.9A8 8 0 1172.9 106l-11 10.9a37.6 37.6 0 01-26.5 11z"/><path id="top_chain" class="chain-fill" d="M75.4 87.9a35.3 35.3 0 01-25.1-10.3 8 8 0 1111.3-11.3c7.8 7.8 20.8 7.5 29-.7l14.9-14.9c8.2-8.2 8.5-21.2.7-29A19.5 19.5 0 0092 16a21.4 21.4 0 00-14.8 6.3l-10.9 11A8 8 0 0155 22l10.9-11A37.3 37.3 0 0191.8 0a35.3 35.3 0 0125.8 10.3c14 14 13.7 37.2-.7 51.6l-15 15a37.6 37.6 0 01-26.5 11z"/></g></svg>