<svg xmlns="http://www.w3.org/2000/svg" viewBox="0 0 128 112"><path d="M60 56H20a4 4 0 010-8h40a4 4 0 010 8zm-8-16H20a4 4 0 010-8h32a4 4 0 010 8zm-8-16H20a4 4 0 010-8h24a4 4 0 010 8z"/><path d="M116 24H88V12A12 12 0 0076 0H12A12 12 0 000 12v48a12 12 0 008 11.31V84a4 4 0 006.41 3.19L34.57 72H40v12a12 12 0 0012 12h41.43l20.16 15.19a4 4 0 002.41.81 4.05 4.05 0 001.79-.42A4 4 0 00120 108V95.31A12 12 0 00128 84V36a12 12 0 00-12-12zM80 60a4 4 0 01-4 4H33.23a4 4 0 00-2.41.81L16 76v-8a4 4 0 00-4-4 4 4 0 01-4-4V12a4 4 0 014-4h64a4 4 0 014 4z"/></svg>