<svg xmlns="http://www.w3.org/2000/svg" viewBox="0 0 96 128"><path d="M84.87 16H80v8h4.87A3.13 3.13 0 0188 27.13v89.74a3.13 3.13 0 01-3.13 3.13H11.13A3.13 3.13 0 018 116.87V27.13A3.13 3.13 0 0111.13 24H16v-8h-4.87A11.14 11.14 0 000 27.13v89.74A11.14 11.14 0 0011.13 128h73.74A11.14 11.14 0 0096 116.87V27.13A11.14 11.14 0 0084.87 16z"/><path d="M68 16h-4V6.34A6.34 6.34 0 0057.66 0H38.34A6.34 6.34 0 0032 6.34V16h-8v18.11A5.89 5.89 0 0029.89 40h36.22A5.89 5.89 0 0072 34.11V16zm-12-.84a.85.85 0 01-.84.84H40.84a.85.85 0 01-.84-.84V8.84a.85.85 0 01.84-.84h14.32a.85.85 0 01.84.84z"/></svg>