<svg xmlns="http://www.w3.org/2000/svg" viewBox="0 0 120 43.43"><g data-name="cmy-swash"><path fill="#fad71c" d="M95.43 5.15L74.08 26.24l-12.2 12.35a17.42 17.42 0 0024.41-.3l21.35-21.09L120 4.84c-6.74-6.65-17.83-6.35-24.57.31z"/><path fill="#fa2a92" d="M64.5 5.15L43.14 26.24l-12.2 12.35a17.42 17.42 0 0024.41-.3L76.7 17.2 89.06 4.84c-6.74-6.65-17.82-6.35-24.56.31z"/><path fill="#00aeff" d="M33.56 5.15L12.2 26.24 0 38.59a17.42 17.42 0 0024.41-.3L45.76 17.2 58.13 4.84c-6.74-6.65-17.83-6.35-24.57.31z"/></g></svg>