<svg xmlns="http://www.w3.org/2000/svg" viewBox="0 0 200 100"><path fill="none" d="M0 2.5h200v95H0z"/><path d="M42.65 62.21a4.11 4.11 0 00-4.09 4.09v6.55a4.11 4.11 0 004.09 4.09h10.66a1.85 1.85 0 000-3.71H42.65a.38.38 0 01-.38-.38V66.3a.38.38 0 01.38-.38h10.66a1.85 1.85 0 000-3.71zm17.88 10.62V66.3a.38.38 0 01.38-.38h9.55a.38.38 0 01.38.38v6.55a.38.38 0 01-.38.38h-9.54a.37.37 0 01-.38-.4zm.38-10.62a4.11 4.11 0 00-4.09 4.09v6.55a4.11 4.11 0 004.09 4.09h9.55a4.11 4.11 0 004.09-4.09V66.3a4.11 4.11 0 00-4.09-4.09zm34.35 0H91a3.61 3.61 0 00-2.75 1.27 3.6 3.6 0 00-2.74-1.27H81.2a4.11 4.11 0 00-4.09 4.09v8.78a1.85 1.85 0 003.71 0V66.3a.38.38 0 01.38-.38H86a.38.38 0 01.38.38v8.78a1.85 1.85 0 003.71 0V66.3a.38.38 0 01.38-.38h4.8a.38.38 0 01.38.38v8.78a1.85 1.85 0 003.71 0V66.3a4.12 4.12 0 00-4.09-4.09zm30.24 7.43V66.3a.38.38 0 01.38-.38h9.56a.38.38 0 01.38.38v3.34zm9.94-7.43h-9.56a4.11 4.11 0 00-4.09 4.09v8.78a1.85 1.85 0 003.71 0v-1.73h10.32v1.73a1.85 1.85 0 003.71 0V66.3a4.12 4.12 0 00-4.09-4.09zm-29.83 4.09a.38.38 0 01.38-.38h9.55a.38.38 0 01.38.38v3a.38.38 0 01-.38.38h-9.93V66.3zm.38-4.09a4.11 4.11 0 00-4.09 4.09v8.78a1.86 1.86 0 003.71 0v-1.73h9.93a4.11 4.11 0 004.09-4.09v-3a4.11 4.11 0 00-4.09-4.09zm52.1 17.07A1.86 1.86 0 00161 77l-2.09-2.69a2.8 2.8 0 00-2.22-1.09h-10.52a.38.38 0 01-.38-.38V66.3a.38.38 0 01.38-.38h9.55a.38.38 0 01.38.38v2.92a1.85 1.85 0 003.71 0V66.3a4.11 4.11 0 00-4.09-4.09h-9.55a4.11 4.11 0 00-4.09 4.09v6.55a4.11 4.11 0 004.09 4.09h10a.26.26 0 01.21.1l1.74 2.24zm-45.67-25.83c2.91 3.74 8.65-.72 5.74-4.45l-4.1-5.27a5.49 5.49 0 00-4.34-2.13H89a.75.75 0 01-.75-.75V28a.75.75 0 01.75-.75h18.72a.75.75 0 01.75.75v5.72c0 4.74 7.26 4.74 7.26 0V28a8 8 0 00-8-8H89a8 8 0 00-8 8v12.84a8.06 8.06 0 008 8h19.54a.52.52 0 01.41.2l3.42 4.39z"/></svg>