<svg xmlns="http://www.w3.org/2000/svg" viewBox="0 0 128 128"><defs><style>.icon-fill{fill:#fff}</style></defs><path class="icon-fill" d="M42.33 39.05h35.59a5.71 5.71 0 005.71-5.7v-17.3h-8V6.2A6.15 6.15 0 0069.48.05H50.77a6.14 6.14 0 00-6.14 6.15v9.85h-8v17.3a5.7 5.7 0 005.7 5.7zm10.11-31h14.37a.82.82 0 01.82.82v6.37a.82.82 0 01-.82.81H52.44a.81.81 0 01-.81-.81V8.87a.82.82 0 01.81-.82z"/><path class="icon-fill" d="M106.82 117.17q.48-.56.93-1.14l.06-.07c.29-.38.57-.76.85-1.15a1 1 0 00.08-.11c.26-.38.52-.76.77-1.15l.09-.16q.36-.56.69-1.14l.12-.2c.2-.38.4-.75.6-1.14l.13-.25c.18-.37.35-.74.52-1.12a2.92 2.92 0 00.14-.31c.16-.36.31-.73.45-1.1a3.84 3.84 0 00.14-.36c.13-.35.26-.71.38-1.07 0-.14.09-.28.14-.42.11-.35.21-.7.31-1 0-.16.09-.31.13-.47.09-.34.17-.69.25-1 0-.17.08-.33.11-.5.08-.35.13-.69.19-1 0-.18.07-.35.1-.53 0-.35.1-.7.14-1.05 0-.19 0-.37.07-.55 0-.37.06-.75.09-1.13v-4.19c0-.18 0-.65-.08-1s0-.43-.07-.65-.07-.56-.11-.84-.07-.47-.11-.7-.09-.51-.14-.76l-.15-.74c0-.23-.11-.47-.16-.7s-.13-.51-.2-.77l-.18-.7c-.08-.27-.16-.54-.25-.81l-.18-.54c-.1-.29-.2-.58-.31-.86s-.11-.3-.17-.44c-.12-.31-.25-.62-.38-.92a2.92 2.92 0 00-.14-.31c-.15-.34-.31-.68-.47-1v-.06a31.33 31.33 0 00-4.54-6.79V25.85a10.81 10.81 0 00-10.8-10.8h-5.2v8h5.26a2.74 2.74 0 012.74 2.74v44.05a30.7 30.7 0 00-5.37-2.45l-.19-.06c-.55-.19-1.11-.36-1.68-.52l-.22-.06a31.12 31.12 0 00-3.79-.75l-.5-.06c-.47-.06-1-.11-1.43-.15h-.54c-.63 0-1.27-.06-1.91-.06a31.1 31.1 0 00-31.2 31v1.98c0 .33 0 .66.07 1l.06.59c0 .29.07.57.11.86s.07.42.1.62.09.54.14.8.09.44.13.65l.18.75c.05.22.1.44.16.66s.13.45.19.67c.15.51.31 1 .48 1.51l.14.41c.1.29.22.57.33.86l.16.42c.12.29.25.58.38.86l.17.38c.14.29.28.59.43.88l.15.3c.16.31.33.62.5.93l.08.12a30.81 30.81 0 002.82 4.14H23.36a2.73 2.73 0 01-2.73-2.73v-87.3a3 3 0 013-3h5v-8h-9.58a5.43 5.43 0 00-5.42 5.43v98.14a5.43 5.43 0 005.42 5.43h49.32a29.45 29.45 0 003.35 1.61l.26.11c.48.19 1 .37 1.46.53l.32.11c.56.19 1.12.36 1.69.51h.06c.59.16 1.2.3 1.81.42l.35.06c.47.09 1 .17 1.43.24l.56.07 1.32.13h.54c.62 0 1.23.06 1.86.06s1.31 0 2-.07h.54c.52 0 1-.1 1.53-.17h.45c.64-.1 1.27-.21 1.9-.34l.3-.07c.45-.1.89-.2 1.33-.33l.73-.2c.56-.17 1.12-.35 1.67-.54h.14c.6-.22 1.2-.46 1.79-.72l.53-.24a9.13 9.13 0 001.09-.53l.5-.26a31.2 31.2 0 006.82-4.91c.37-.35.73-.72 1.08-1.09.35-.37.68-.74 1-1.12zM104.56 75zm-33.09 9.51a12.26 12.26 0 018-5.09 15.73 15.73 0 018.73.61 11.79 11.79 0 011.26.56 12.14 12.14 0 011.16.68 9.83 9.83 0 014.63 8.17 9.6 9.6 0 01-4.73 7.93c-.35.23-.68.43-1 .62l-.87.51-1.4.77-.18.09V102a4.07 4.07 0 01-7.77 1.85 4.05 4.05 0 01-.37-1.57 1.31 1.31 0 010-.28v-1.89a18 18 0 01.23-3 6.59 6.59 0 01.57-1.79 3.5 3.5 0 01.31-.53 8.72 8.72 0 013.46-2.83 30.14 30.14 0 002.65-1.53 3.21 3.21 0 00.43-.33 1.65 1.65 0 00.45-.54.51.51 0 000-.17.44.44 0 000-.19 2.76 2.76 0 00-1-1 2.87 2.87 0 00-.46-.25 5.6 5.6 0 00-1.76-.48 8.93 8.93 0 00-2.77.1l-.48.12a6.61 6.61 0 00-.89.31 3.26 3.26 0 00-1.47 1.1 4.1 4.1 0 01-1.11 1.16 4.16 4.16 0 01-1.42.61 4 4 0 01-3-.53h-.07a4.16 4.16 0 01-1.52-1.87 4.38 4.38 0 01-.32-1.55 4.12 4.12 0 01.71-2.41zm15.16 28.22a3.73 3.73 0 01-.35.69 4 4 0 01-3.28 1.87 4.13 4.13 0 01-4.24-3.05 4.36 4.36 0 01-.14-.83 4.15 4.15 0 012.29-4 4 4 0 011.58-.42 4.17 4.17 0 014.25 3 4.63 4.63 0 01.13.83v.18a.49.49 0 010 .12 4.05 4.05 0 01-.24 1.61zm-20 11zm-4.79-3.66zm1.13 1zm1.17.94zm1.21.89z"/></svg>