<svg data-name="dashboard" xmlns="http://www.w3.org/2000/svg" viewBox="0 0 128 128"><path d="M64 16a47.85 47.85 0 00-34.19 14.35 2.85 2.85 0 00-.26.23c-.06.07-.11.15-.16.22A47.81 47.81 0 0016 64a4 4 0 004 4h8a4 4 0 000-8h-3.8a39.85 39.85 0 018.58-21l8.5 7.89a4 4 0 005.65-.21 4 4 0 00-.21-5.65l-8.35-7.75A39.86 39.86 0 0160 24.2V28a4 4 0 008 0v-3.8a39.8 39.8 0 0121.71 9.19L81.31 41A4 4 0 0084 48a4 4 0 002.69-1l8.6-7.83A39.79 39.79 0 01103.8 60H100a4 4 0 000 8h8a4 4 0 004-4 48.05 48.05 0 00-48-48z"/><path d="M128 64A64 64 0 107.23 93.5a2.48 2.48 0 00.17.37 63.9 63.9 0 0040.44 32.06l.32.08c1 .25 1.94.48 2.92.68h.17c.88.18 1.76.33 2.65.47l.68.11c1 .14 1.89.27 2.85.36h.21c.89.09 1.78.16 2.68.21h.76c1 0 1.94.07 2.92.07s2 0 2.92-.07h.76c.9 0 1.79-.12 2.68-.21h.21c1-.09 1.9-.22 2.85-.36l.69-.11c.88-.14 1.76-.29 2.63-.47h.18c1-.2 2-.43 2.92-.68l.32-.08a63.9 63.9 0 0040.44-32.06c.06-.12.12-.24.17-.37A63.55 63.55 0 00128 64zM64 8a56 56 0 0150.59 80H87.66a24.08 24.08 0 00-17.85-19.29C69 59.57 68.27 50.89 68 47.65a4 4 0 00-8 0c-.29 3.24-1 11.92-1.83 21.06A24.08 24.08 0 0040.34 88H13.41A56 56 0 0164 8zm6.54 69.4A16 16 0 0179.49 88h-8.07c-.24-3-.55-6.71-.88-10.6zM56.58 88h-8.07a16 16 0 019-10.6c-.38 3.89-.69 7.6-.93 10.6z"/></svg>