<svg xmlns="http://www.w3.org/2000/svg" viewBox="0 0 128 128"><path d="M128.16 33.45a4 4 0 00-3.92-3.92c-1.77 0-43.38-.59-69.27 25.3s-25.34 67.52-25.31 69.28a4.38 4.38 0 00.3 1.41l3.75-4.47q2.16-2.58 4.34-5.13 12.39-14.49 25.39-28.41c7.11-7.56 14.41-15 22-22l5.77-5.22c2-1.67 3.92-3.4 6-5s4-3.26 6.16-4.75 4.26-2.94 6.42-4.36c-2.07 1.56-4.17 3-6.12 4.75s-3.9 3.38-5.8 5.11-3.72 3.58-5.58 5.36l-5.39 5.55C79.77 74.41 73 82.21 66.44 90.16c-7.9 9.58-15.54 19.38-23 29.31q-1.62 2.16-3.21 4.32T37.15 128c10.87-.39 43.87-3.41 65.7-25.25 25.9-25.93 25.34-67.54 25.31-69.3zM20 63.55c-.49 4.7-.88 9.4-1.21 14.11-.12 1.78-.24 3.57-.34 5.36s-.19 3.4-.28 5.11c5-3.35 23.93-17.22 28.56-38.35 5.23-23.89-10-47-10.67-48A4 4 0 0030.68.62c-1 .61-24.52 15.23-29.75 39.12s10 47 10.67 48a3.82 3.82 0 00.43.53c.28-2.06.56-4.12.86-6.17l1-6.86q1-6.13 2.14-12.24c1.48-7.75 3.21-15.45 5.37-23s4.83-15.14 8.69-22c-3.26 7.14-5.17 14.74-6.71 22.38S20.83 55.8 20 63.55z"/></svg>