<svg xmlns="http://www.w3.org/2000/svg" viewBox="0 0 130.2 45"><path d="M44 15.3h-4.6v6.5h5c1.7 0 3-1.3 3-3v-.2c.1-2.3-1.1-3.3-3.4-3.3zm39.4-.6h-.1c-3.6.1-5.8 3.2-5.8 7.8 0 4.9 2.3 7.9 6.1 7.9s6.1-3 6.1-7.9-2.4-7.8-6.3-7.8zm34.1-2.3h-.5v.7h.7c.2 0 .4-.1.4-.3v-.1c0-.2-.1-.3-.6-.3z"/><path d="M0 0v45h130.2V0H0zm33.2 33.9H15.7V11.3h16.9v4H20.5V20h11.3v4H20.5v5.8h12.7v4.1zm14.4-8.5c-1.1.3-2.3.4-3.5.3h-4.8v8.2h-4.8V11.3h10.8c3.7 0 6.8 3 6.8 6.7v.4c.3 3-1.6 5.9-4.5 7zm14.9 9.1c-6.2 0-9.4-2.6-9.7-7.6h4.6c.1 2.5 1.7 3.8 4.9 3.8s4.8-1 4.8-2.9c-.1-1.2-1-2.1-2.2-2.3l-6.5-1.6c-3.5-.9-5.3-2.9-5.3-5.9 0-4.5 3.3-7.2 8.8-7.2s8.9 2.9 9.1 7.4h-4.6c-.3-2.3-1.7-3.5-4.6-3.5-2.4 0-4 1.2-4 2.7 0 1.1.8 2.1 1.9 2.3l6.8 1.6c1.3.2 2.6.8 3.6 1.7 1.2 1 1.8 2.5 1.7 4-.1 4.7-3.6 7.5-9.3 7.5zm21 0c-3.8.2-7.3-1.8-9.2-5-1.1-1.7-1.6-4-1.6-6.9 0-4.8 1.6-8.1 4.6-10.1 1.9-1.1 4-1.7 6.2-1.7 2.1 0 4.2.6 6.1 1.7 3.2 2 4.8 5.3 4.8 10.1-.1 7.3-4.1 11.9-10.9 11.9zm31-.6h-4.9l-9.4-16.2v16.1h-4.5V11.3h5l9.1 15.7V11.3h4.6l.1 22.6zm3-18.4c-1.2.1-2.2-.8-2.3-2s.8-2.2 2-2.3h.3c1.2 0 2.2 1 2.2 2.2s-1 2.1-2.2 2.1z"/><path d="M117.5 11.5h-.1c-.9 0-1.7.7-1.7 1.6v.1c0 1 .9 1.8 1.8 1.7 1 0 1.7-.8 1.7-1.7.1-.9-.7-1.7-1.7-1.7.1 0 .1 0 0 0zm1 3h-.4l-.7-1.2h-.4v1.2h-.3v-2.4h.9c.6 0 1 .1 1 .6 0 .4-.3.7-.6.7h-.1l.6 1.1z"/></svg>