<svg xmlns="http://www.w3.org/2000/svg" viewBox="0 0 128 128"><path class="cls-1" d="M64 128a64 64 0 1164-64 64.07 64.07 0 01-64 64zM64 8a56 56 0 1056 56A56.06 56.06 0 0064 8z"/><rect class="cls-1" x="24" y="58" width="20" height="35" rx="4.99" ry="4.99"/><path class="cls-1" d="M101.24 66.34c4.33-4.56 3.48-13-2.73-15.44-2.71-1-5.74-.9-8.6-.9h-8.78s1-3.51 1.31-4.19A39.39 39.39 0 0084.07 42a18.85 18.85 0 00.38-11.53 9.75 9.75 0 00-7.76-6.39 6 6 0 00-3.32.09 5.24 5.24 0 00-2.49 2.3C69.37 29 69.18 32 68.53 34.8a17.18 17.18 0 01-4.28 7.67c-4.19 4.74-7.68 10.09-12.66 14.08-1.81 1.45-3.52 2.51-3.59 5.08v26.48a5.05 5.05 0 002.15 4.26c1.43 1 3.13.86 4.76 1.17s3.57.72 5.31 1.2a115.54 115.54 0 0011.61 3 72.69 72.69 0 008.34.83c2.63.15 5.47.63 8.07 0A9.91 9.91 0 0096 88a10.35 10.35 0 004.21-8.44 10.08 10.08 0 00-.52-2.56 10.09 10.09 0 001.55-10.66z"/></svg>