<svg xmlns="http://www.w3.org/2000/svg" viewBox="0 0 50 30"><path d="M.7 2.9v22.9c0 2.8 1.1 4.2 3.6 4.2h15.3l.7-2.1c-5.8-1.8-9.7-7.2-9.6-13.2 0-6.1 4-10.7 9-12.8l.6-1.9H3.9C2.5 0 .7 1.4.7 2.9zm48.5 0C49.1 1.3 47.9.1 46.3 0H26.8L26 1.8c8.6.4 13.2 6.8 13.2 12.8 0 5.4-3.9 12.8-12.2 13.2L26 30h20c2.2 0 3.3-1.4 3.3-4.2l-.1-22.9zm-23.4 7.8c.2-1-.9-1.7-1.9-1.7h-2.1L25 0h-3.2l-7.1 20.4h3l3.4-9.7h1.8l-3.6 9.6h3.2s3.2-9.2 3.3-9.6zM28.5 9l-7.1 21h3.2l2.9-9.3h3.6c1.4 0 1.8-1 2.2-2.1.3-.8 2.6-7.6 2.7-8 .1-.7-.5-1.6-1.8-1.6-1-.1-5.6 0-5.7 0zm-.4 10.3l2.9-8.6h1.8l-2.9 8.6h-1.8z" fill-rule="evenodd" clip-rule="evenodd"/></svg>