<svg xmlns="http://www.w3.org/2000/svg" viewBox="0 0 200 100"><path fill="none" d="M0 2.5h200v95H0z"/><path d="M155.73 30.7h-18.55l1.14-3.2h17.41v3.2zm-49.46-3.2h17.23l1.13 3.21h-18.35l-.01-3.21zm-13.68 0a12.39 12.39 0 017.41 3.2H68.78v-3.2zm-48.32 0h21.69v3.2H44.27zm111.46 9.2h-20.68s1.13-3.18 1.12-3.18h19.56zm-28.98.01h-20.48v-3.19h19.36l1.12 3.19zm-24.32-3.19a8.27 8.27 0 01.9 3.18H68.78v-3.18zm-58.16 0h21.69v3.18H44.27zm88.67 9.2l1.13-3.2 15.53.01v3.18l-16.66.01zm-5.19-3.2l1.13 3.2h-16.5v-3.2h15.37zm-24.15 0a10.44 10.44 0 01-.46 3.2h-9.45v-3.2zm-53.28.02h9.32v3.18h-9.32zm24.74-.02h9.31v3.2h-9.31zm46.49 6.65v2.43h-9.17v-3.18h17.47l1.09 3 1-3h17.61v3.18h-9.12v-2.43l-.84 2.43h-17.2zm-46.49-.75h26.72a12 12 0 01-2.65 3.19H75.06zm-24.74-.01h9.32v3.18h-9.32zm90.15 6.01h9.12v3.18h-9.12zm-18.92 0h-9.17v3.18h9.17s.01-3.18 0-3.18zm17.07 0s-1.07 3.18-1.11 3.18h-13l-1.14-3.19zm-63.56 0h24a15.71 15.71 0 012.86 3.18H75.06zM59.64 54.6v-3.18h-9.31v3.18zm80.83 2.82h9.12v3.18h-9.12zm-28.09 0h9.17v3.18h-9.17zm23 3.2s1.13-3.2 1.14-3.2h-11l1.13 3.18s8.73.03 8.73.02zm-60.32-.02v-3.18h9.44v3.19zm28.21-3.18a9.25 9.25 0 01.59 3.2h-10v-3.2zm-52.94 0h9.31v3.18h-9.31zm90.14 5.88h15.26v3.18h-15.26zm-34.2 0h15.28v3.18h-15.28zm27.06 3.18h-4.66l-1.12-3.18h6.85l-1.07 3.18zM44.27 63.3v3.18h21.68V63.3zm59.2 0a6.84 6.84 0 01-1.2 3.18H68.78V63.3zm27.75 9.19h-.43l-1.09-3.19h2.63l-1.11 3.19zm9.25-3.19h15.26v3.2h-15.26zm-71.69 3.19v-3.18h31.41a11.9 11.9 0 01-8.09 3.19H68.78m37.49-3.2h15.28v3.2h-15.28zm-40.32.01v3.18H44.27V69.3s21.67.03 21.68.01z"/></svg>