<svg xmlns="http://www.w3.org/2000/svg" viewBox="0 0 128 128"><path d="M125 97H29a4 4 0 010-8h10.6l74-11.24.34-.07c.74-.18 1.51-.34 2.29-.49C121 76.18 129 74.55 129 65.57V29.13c0-9-3.14-12.13-12-12.13H24.12l-1.24-5A4 4 0 0019 9H5a4 4 0 000 8h10.88l1.24 5 15.24 59H29a12 12 0 00-3.14 23.57A11.85 11.85 0 0025 109a12 12 0 0024 0 11.8 11.8 0 00-.7-4h49.4a11.8 11.8 0 00-.7 4 12 12 0 0024 0 11.8 11.8 0 00-.7-4h4.7a4 4 0 000-8zM60.21 36.29a5.85 5.85 0 014.44-2c3.15 0 6.33 2.38 8.52 4.49 2.19-2.11 5.36-4.49 8.51-4.49a5.87 5.87 0 014.45 2 11.72 11.72 0 010 15.37L74.65 64.34a2 2 0 01-3 0L60.21 51.66a11.69 11.69 0 010-15.37z"/></svg>