<svg xmlns="http://www.w3.org/2000/svg" viewBox="0 0 218.1 45"><path d="M218.1 17.8l-8 7.2 8 7.3v4.2h-.3L206 25.8V36h-3.4V5.2h3.4v19.3l11.8-10.7h.3v4zM63.7 36h17.5v-3.4H67.3V6.2h-3.6V36zm29.6-22.2c-5.4 0-10.3 4.4-10.3 11.4 0 6.8 4.5 11.3 10.9 11.3 2.8.1 5.6-.8 7.9-2.5v-3.7c-2.2 1.9-4.9 3-7.8 3-3.9 0-7.3-2.4-7.6-6.9h16.4c0-.5.1-1.4.1-1.8 0-7-4.3-10.8-9.6-10.8zm0 3.1c3 0 6.1 2 6.2 6.6h-13c.1-3.7 3.1-6.6 6.8-6.6zm57.5-3.1c-2.6 0-5.1 1.4-6.3 3.8-1-2.5-3.4-4-6.1-3.8-2.5 0-4.8 1.4-5.9 3.7h-.1l-.4-3.2h-2.7V36h3.5V22.3c0-2.7 1.6-5.2 4.7-5.2s4.2 1.7 4.2 4.9v14h3.5V22c-.1-2.6 1.8-4.8 4.4-4.9h.3c3 0 4.3 1.7 4.3 4.9v14h3.5V21.5c0-4.5-2.2-7.7-6.9-7.7zm20.9 0c-5.2 0-10.1 4.4-10.1 11.4s4.8 11.3 10 11.3c3.3.1 6.4-1.7 8-4.6l.4 4.1h2.8V14.3H180l-.4 4.1c-1.5-2.9-4.6-4.7-7.9-4.6zm.7 3.2c4.1 0 7.2 3.3 7.2 8.1s-3.1 8.1-7.2 8.1-7.2-3.3-7.2-8.1 3.1-8.1 7.2-8.1zm25.4-3c-2.6 0-5 1.4-6.3 3.7l-.4-3.5h-2.8V36h3.4V23.5c0-5 4.1-6.6 7.4-5.9v-3.5c-.3-.1-.8-.1-1.3-.1zm-72.8-.2h-.3l-9.1 9.1-9.1-9.1h-.3v4.4l7 7-7 7v4.4h.3l9-9.1 9.1 9.1h.3v-4.5l-7.1-7L125 18v-4.2zm86.9-8.3v-.3h2.4v.3h-1v2.4h-.3V5.5h-1.1zm3.6-.3l1 2.3 1.1-2.3h.5V8h-.3V5.6l-1 2.3h-.3l-1-2.3v2.3h-.4V5.2h.4zM16 20.2L36.2 0H0v4.3l16 15.9zm13 4.6L8.8 45H45v-4.3L29 24.8zM40.8 0l-16 16L45 36.2V0h-4.2zM20.2 29L0 8.8V45h4.3l15.9-16z"/></svg>