<svg xmlns="http://www.w3.org/2000/svg" viewBox="0 0 200 100"><path fill="none" d="M0 2.5h200v95H0z"/><path d="M35.92 52.06V32.5h-8.07l-24.23 35h9.69l14.27-20.61v17.24l8.34-12.07zm144.04-11.48h8.08V67.5h-8.08zm-116.84 0h8.08V67.5h-8.08zm114.42 0h-9.7l-9.42 11.51V40.58h-8.07V67.5h8.07V52.84l9.42 14.66h9.7l-9.7-15.08 9.7-11.84zM59.89 67.5v-35h-8.08l-24.23 35h9.69l14.27-20.61V67.5h8.35zm54.92-16.96a10.5 10.5 0 00-18.36-7 9.69 9.69 0 00-13.95-1.03v-1.93h-8.08V67.5h8.08V51.88a4 4 0 018.08 0V67.5h8.08V51.88a4 4 0 018.08 0V67.5h8.08v-17m24.18 17h8.08V40.58H139v2.29a13.73 13.73 0 10-8.35 24.63h6.19v-7.81H131a6.19 6.19 0 110-12.38h.81a7.27 7.27 0 017.19 7.27V67.5m54.29-30.02a3.1 3.1 0 103.1 3.1 3.1 3.1 0 00-3.1-3.1m0 5.79a2.69 2.69 0 112.71-2.69 2.69 2.69 0 01-2.69 2.69"/><path d="M193.69 41a1.08 1.08 0 100-2.15h-1.48v3.5h.4v-3.12h1.08a.67.67 0 110 1.35h-1.08l1.62 1.75h.54L193.52 41h.16"/></svg>