<svg xmlns="http://www.w3.org/2000/svg" viewBox="0 0 200 100"><path fill="none" d="M0 2.5h200v95H0z"/><path d="M16.83 57.88h10c2.23 0 3.27 2.58 4 5.87l2.34 8.83 2.16-8.9c.81-3.32 1.79-5.8 4-5.8h10V80h-7.24V63.89l-5 16.11H29l-5-16.25V80h-7.17V57.88zm109.74-.01h7.4v7.14h10.37v-7.14h7.46V80h-7.46v-9.07h-10.37V80h-7.4V57.87zM51 57.88v16.7c.62 3.49 3 5.35 7.31 5.42h17.33V63.75h7.55V80h7.73V63.75h7.9a16.15 16.15 0 00-.71 4.79c0 6.25 3.41 11.36 7.61 11.46h11.77c4.25 0 7.72-5.15 7.72-11.46s-3.47-11.46-7.72-11.46h-11.78c-2.34.05-4.43 1.66-5.82 4.15v-3.35h-31.5v16.7h-7.5c-1.81 0-2.54-.92-2.54-2.47V57.88zm57.66 3.94h5.56c2 0 3.65 2.91 3.65 6.43s-1.64 6.34-3.65 6.34h-5.52c-2-.05-3.59-2.9-3.59-6.38s1.61-6.33 3.59-6.38zM17.23 50.41c-7-10.51 40.07-24.18 44.43-25.55 5.3-.43 13.5-2.82 19.14-4.53h11.1c4 6-8 10.08-10 15C90.19 33.58 98.22 28 106.76 28l1.54 1c0 1.54-.94 3.08-1.28 5.13 2-.43 2-.43 10.59-3.93 20.42-5.13 44.17-11.36 65.87-10.08-25.8 3.08-53.48 7-76.21 18.37-4.36 1.37-8.29 3.08-12.47 3.59.6-2.56 2-4.61 2.39-6.84-9.4 0-20.68 7.86-28.71 11.36-2.73 2.56-5.38 1.71-8.12-.77V45c7.19-6.55 19.92-12.1 24.7-20.3a1.87 1.87 0 00-.26-.43c-5.72 0-12.82 3-18.28 4-17.69 6.66-31.78 12-47 22.3a20.93 20.93 0 00-2.31-.17zm165.3-24.69a2.7 2.7 0 11-.79-1.91 2.6 2.6 0 01.79 1.91zm-.3 0a2.4 2.4 0 10-.7 1.7 2.31 2.31 0 00.7-1.7zm-3.4-1.55H180a1.37 1.37 0 01.88.22.7.7 0 01.27.56.76.76 0 01-.28.59 1.17 1.17 0 01-.59.23 1.1 1.1 0 01.25.15 1.93 1.93 0 01.22.27 3.92 3.92 0 01.23.35l.3.53h-.46l-.28-.48a2.28 2.28 0 00-.49-.67 1 1 0 00-.55-.11h-.24v1.26h-.38v-2.9zm.38.31v1h.37a3.38 3.38 0 00.81-.06.43.43 0 00.24-.17.45.45 0 00.09-.27.48.48 0 00-.16-.36 1.32 1.32 0 00-.8-.15z"/></svg>