<svg data-name="order-review" xmlns="http://www.w3.org/2000/svg" viewBox="0 0 128 128"><path d="M127.42 53.1a8 8 0 00-6.49-5.49l-34.57-4.9L70.94 12.2a8 8 0 00-14.28 0L41.24 42.71l-34.56 4.9a8 8 0 00-4.39 13.72L27.18 85l-5.87 33.41a8 8 0 0011.54 8.5L63.8 111l31 15.89a8 8 0 0011.53-8.5L100.42 85l24.9-23.69a8 8 0 002.1-8.21zM7.8 7.81c-.6-1.82 0-8-2.88-8C-.2-.19-.2 13.57-.2 15.57v.24a8 8 0 108-8zm24 0c-.6-1.82 0-8-2.88-8-5.12 0-5.12 13.76-5.12 15.76v.24a8 8 0 108-8zm96 0a8 8 0 10-8 8c.61 1.82 0 8 2.88 8 5.12 0 5.12-13.76 5.12-15.76v-.24zm-32-8a8 8 0 000 16c.61 1.82 0 8 2.88 8 5.12 0 5.12-13.76 5.12-15.76v-.24a8 8 0 00-8-8z"/></svg>