<svg xmlns="http://www.w3.org/2000/svg" viewBox="0 0 128 128" fill="#c1c6cb"><path d="M22.53 127H5a4 4 0 01-4-4v-17.53a1 1 0 011.7-.7l20.53 20.53a1 1 0 01-.7 1.7zM107.508 2.182l18.32 18.32a4 4 0 010 5.658l-7.678 7.679a2 2 0 01-2.829 0l-21.15-21.15a2 2 0 010-2.828l7.68-7.68a4 4 0 015.657 0zm3.782 35.688L90.13 16.71a2 2 0 00-2.82 0L6.38 97.64a2 2 0 000 2.83l21.15 21.15a2 2 0 002.83 0l80.93-80.93a2 2 0 000-2.82zm-19.71 4.19L31.74 101.9a4 4 0 01-5.64 0 4 4 0 010-5.64l59.84-59.84a4 4 0 015.64 5.64z"/></svg>