<svg xmlns="http://www.w3.org/2000/svg" viewBox="0 0 128.04 127.97"><path d="M123.27 92.02L112.8 81.51a16.36 16.36 0 00-23.09 0l-4.16 4.16a10.63 10.63 0 01-5.4-2.9L45.27 47.89a10.63 10.63 0 01-2.9-5.4l4.16-4.16a16.38 16.38 0 000-23.09L36.02 4.77a16.37 16.37 0 00-23.1 0l-8.68 8.72c-6 6-5.62 17.79 1.16 33.11 6.46 14.58 17.73 30.32 31.72 44.31 22.9 22.88 49 37.11 65.42 37.11 5 0 9.17-1.34 12-4.17l8.72-8.72a16.37 16.37 0 000-23.1zm-7.2-28a4 4 0 01-4-4 44 44 0 00-44-44 4 4 0 110-8 52.06 52.06 0 0152 52 4 4 0 01-4 4z"/><path d="M92.07 64.02a4 4 0 01-4-4 20 20 0 00-20-20 4 4 0 010-8 28 28 0 0128 28 4 4 0 01-4 4z"/></svg>