<svg data-name="quick-reorder" xmlns="http://www.w3.org/2000/svg" viewBox="0 0 128 128"><path d="M64 44a36 36 0 1036 36 36 36 0 00-36-36zm0 56a20 20 0 01-20-20 4 4 0 018 0 12 12 0 1015.79-11.38v1.51a3.5 3.5 0 01-5.35 3l-9.5-5.92a3.5 3.5 0 010-5.94l9.5-5.92a3.5 3.5 0 015.35 3v2.08A20 20 0 0164 100z"/><path d="M128 35.92a3.36 3.36 0 00-.06-.63v-.14a4.75 4.75 0 00-.2-.64l-.08-.17a2.14 2.14 0 00-.1-.22l-17-32A4 4 0 00107 0H21a4 4 0 00-3.53 2.12l-17 32a2.29 2.29 0 00-.1.23l-.08.16a4.75 4.75 0 00-.2.64v.14a3.26 3.26 0 00-.06.62L0 36v86a6 6 0 006 6h116a6 6 0 006-6V35.92zM117.35 32H72V8h32.6zM23.4 8H56v24H10.65zM120 120H8V40h112z"/></svg>