<svg xmlns="http://www.w3.org/2000/svg" viewBox="0 0 200 100"><path fill="none" d="M0 2.5h200v95H0z"/><path d="M84.26 49.5C84.26 55 88.3 59 95 59a19 19 0 008.31-1.75l2.52 3.45a23.58 23.58 0 01-12 2.81c-10.77 0-18.69-5.19-18.69-14 0-8.81 7.92-14 18.69-14a26.5 26.5 0 0111.77 2.32l-2.59 4A15.66 15.66 0 0095 40c-6.75 0-10.79 4-10.79 9.48zm41.1 9.65c-5.74 0-8.91-4.31-8.91-9.65s3.17-9.65 8.91-9.65 8.9 4.31 8.9 9.65-3.17 9.65-8.9 9.65zm0-23.64c-10.43 0-18 5.19-18 14s7.52 14 18 14 18-5.19 18-14-7.52-14-18-14zm45.06 16.02v11.26h8.62V36.21h-8.62v10.13h-13.17V36.21h-8.6v26.58h8.6V51.53h13.17zM69.98 62.79V36.21H60.9v26.58h9.08zM34.87 48.38v2.54a67.46 67.46 0 0111.81 11.87h10.16a65 65 0 00-12.95-11.56c4.69-.2 9.91-2.09 9.91-7.47 0-6.91-7.38-8.17-14.84-8.17-6.09 0-11.71.28-15.07.56v26.64h8.47V40.15a53.67 53.67 0 016.64-.36c4.36 0 6.57 1.44 6.57 4 0 2.14-.91 4.72-10.7 4.63z"/></svg>