<svg xmlns="http://www.w3.org/2000/svg" viewBox="0 0 200 100"><path fill="none" d="M0 2.5h200v95H0z"/><path d="M42.12 42.33v2.8h-5.88c-2.6 0-5.21 0-7.79.21a3.33 3.33 0 00-3.36 3.5 3.49 3.49 0 003.56 3.36c2.78.19 5.57.17 8.36.31a8.78 8.78 0 012.21.46 5.94 5.94 0 014.41 6.59c-.25 3.31-2.22 5.5-5.8 5.91-2.76.32-5.56.26-8.35.3h-7.63V63.1c.53 0 1-.07 1.54-.07h10.36a13 13 0 002.94-.35 3.6 3.6 0 00.22-6.85 13.49 13.49 0 00-3.06-.44c-2.64-.15-5.31 0-7.91-.42a5.65 5.65 0 01-5.12-5.41 6.23 6.23 0 014.47-6.62 9 9 0 012.76-.57c4.64-.07 9.27-.04 14.07-.04zm83.62.18c5 0 10-.31 14.94.09s7.07 3.33 6.81 8c-.22 3.89-3.22 6.51-7.79 6.65-2.79.09-5.59.07-8.38 0-1.13 0-1.48.34-1.45 1.45.07 2.3 0 4.61 0 7h-4.15zm9.1 12h3.54c3 0 4.52-1.48 4.58-4.37.07-3.29-1.26-4.86-4.41-5-2.5-.09-5 0-7.5 0-.85 0-1.18.3-1.16 1.15q.05 3.54 0 7.08c0 .84.26 1.2 1.14 1.16 1.26-.07 2.54-.03 3.81-.03zM67 42.38v2.67c-.6 0-1.15.07-1.7.08-2.88.07-5.78 0-8.65.25a6.1 6.1 0 00-5.69 7H67v2.87H50.82a6.36 6.36 0 005.2 7.4 62.4 62.4 0 007.36.33H67V66c-4.12-.18-8.24.05-12.2-.62-6.25-1.06-9.55-6.44-8.62-13.08C47 46.24 50.42 43 57 42.43c3.24-.29 6.56-.05 10-.05zM92 63v2.64a7.78 7.78 0 01-1 .12H80.64a10 10 0 01-9.89-8 15.58 15.58 0 010-7.44c1.18-4.85 4.53-7.79 9.54-8 3.82-.17 7.66 0 11.62 0V45c-.42 0-.92.09-1.41.09h-7.81c-4.41.08-6.9 2-7.53 6.33a18.11 18.11 0 00.26 6.31c.72 3.34 3 4.94 6.74 5.16 2.64.15 5.3.06 7.95.08zm30.07 1.13c-2.85-6-5.93-11.85-8.48-17.95-1.29-3.09-2.9-4.46-6.23-3.91-.94.16-1.49.32-1.91 1.22-2.22 4.76-4.51 9.48-6.76 14.21-1.25 2.63-2.49 5.26-3.82 8.08a28.72 28.72 0 003.58 0 2.21 2.21 0 001.44-1 31.9 31.9 0 001.92-4.1 1.62 1.62 0 011.83-1.13c2.93.05 5.88.19 8.8 0 2.24-.18 3.34.58 4.17 2.66 1.56 3.9 1.69 3.85 5.83 3.58a1.46 1.46 0 00.26-.11c-.23-.61-.41-1.09-.63-1.55zm-18.44-7.35l5.14-10.92c.27.43.4.6.49.79l4.82 10.13z"/><path d="M177.13 31.48a14 14 0 00-7.54-5 37.25 37.25 0 00-15.72-1.11 84.52 84.52 0 00-29.49 9.47 11.31 11.31 0 001.31-.48c9.82-4.08 19.92-6.83 30.68-6.38a27.17 27.17 0 019.38 1.95c7.11 3 9.7 9 6.93 16.16-1.91 5-5.23 9-9 12.63-1.93 1.89-4 3.62-6 5.41A6.76 6.76 0 00146 70.78c-.42 1.35-3.23 3.85-3.23 3.85s3-1.85 4.44-1.91a6.75 6.75 0 0011.2-7.3 2.49 2.49 0 01.67-.73c3.68-3 7.45-6 10.91-9.26a31.25 31.25 0 008-11.78c1.57-4.16 1.9-8.3-.86-12.17z"/></svg>