<svg data-name="star-rating" xmlns="http://www.w3.org/2000/svg" viewBox="0 0 640 128"><g fill="#dfe3e4"><path d="M127.63 49.29a8 8 0 00-6.5-5.49l-34.56-4.9L71.15 8.39a8 8 0 00-14.28 0L41.45 38.9 6.89 43.8a8 8 0 00-4.4 13.72l24.9 23.69-5.87 33.41a8 8 0 0011.48 8.5l31-15.89 31 15.89a8 8 0 0011.53-8.5l-5.87-33.41 24.9-23.69a8 8 0 002.06-8.23z"/><path d="M255.62 49.29a8 8 0 00-6.5-5.49l-34.56-4.9-15.42-30.51a8 8 0 00-14.28 0L169.44 38.9l-34.56 4.9a8 8 0 00-4.4 13.72l24.9 23.69-5.87 33.41a8 8 0 0011.49 8.5l31-15.89 31 15.89a8 8 0 0011.53-8.5l-5.87-33.41 24.9-23.69a8 8 0 002.06-8.23z"/><path d="M383.62 49.29a8 8 0 00-6.5-5.49l-34.56-4.9-15.42-30.51a8 8 0 00-14.28 0L297.44 38.9l-34.56 4.9a8 8 0 00-4.4 13.72l24.9 23.69-5.87 33.41a8 8 0 0011.49 8.5l31-15.89 31 15.89a8 8 0 0011.53-8.5l-5.87-33.41 24.9-23.69a8 8 0 002.06-8.23z"/><path d="M511.61 49.29a8 8 0 00-6.5-5.49l-34.56-4.9-15.42-30.51a8 8 0 00-14.28 0L425.43 38.9l-34.56 4.9a8 8 0 00-4.4 13.72l24.9 23.69-5.87 33.41a8 8 0 0011.49 8.5l31-15.89 31 15.89a8 8 0 0011.53-8.5l-5.87-33.41 24.9-23.69a8 8 0 002.06-8.23z"/><path d="M639.61 49.29a8 8 0 00-6.5-5.49l-34.56-4.9-15.42-30.51a8 8 0 00-14.28 0L553.43 38.9l-34.56 4.9a8 8 0 00-4.4 13.72l24.9 23.69-5.87 33.41a8 8 0 0011.49 8.5l31-15.89 31 15.89a8 8 0 0011.53-8.5l-5.87-33.41 24.9-23.69a8 8 0 002.06-8.23z"/></g></svg>