<svg xmlns="http://www.w3.org/2000/svg" viewBox="0 0 128 128"><path d="M88 40.19V16C88 5 65.19 0 44 0S0 5 0 16v80c0 11 22.81 16 44 16q3 0 6-.13a44 44 0 1038-71.68zM8 25.72C16.51 30 30.58 32 44 32s27.49-2 36-6.28v6.22C79.4 34.16 67.4 40 44 40S8.6 34.16 8 32zm0 48c7.71 3.87 20 5.87 32.19 6.22-.12 1.34-.19 2.69-.19 4.06s.07 2.64.19 3.94C19.3 87.36 8.57 82 8 80zM44 104c-23.4 0-35.4-5.84-36-8v-6.28c8 4 21 6 33.67 6.26a43.73 43.73 0 003.15 8zm-2.32-32C19.81 71.61 8.58 66.09 8 64v-6.28C16.51 62 30.58 64 44 64h.83a44.26 44.26 0 00-3.15 8zm8.53-16.12Q47.26 56 44 56c-23.4 0-35.4-5.84-36-8v-6.28C16.51 46 30.58 48 44 48a128 128 0 0016.26-1 44.36 44.36 0 00-10.05 8.86zM105 97.05c-.37 4.46-3.77 8-7.92 8H73.46c-4.36 0-7.89-3.88-7.89-8.67h28.75a2 2 0 002-2V89.9a2 2 0 00-2-2H69a4 4 0 01-4-4V73c.36-4.46 3.77-8 7.91-8h21c4.47 0 8.1 4 8.1 8.92H75.68a2 2 0 00-2 2v1a2 2 0 002 2H97c4.19 0 7.63 3.49 8 8z"/></svg>