<svg data-name="thumb-down" xmlns="http://www.w3.org/2000/svg" viewBox="0 0 128 128"><g fill="#a3a8b2"><rect y="13.41" width="32.02" height="56.04" rx="4.99"/><path d="M123.69 56.09c6.91 7.31 5.56 20.84-4.39 24.73-4.33 1.69-9.19 1.44-13.76 1.44H91.47s1.59 5.61 2.1 6.7a60.7 60.7 0 012.61 6c1.94 5.8 2.54 12.57.61 18.46-1.85 5.68-6.69 9.1-12.42 10.24a9.61 9.61 0 01-5.32-.15 8.41 8.41 0 01-4-3.67c-2.42-4-2.72-8.8-3.76-13.28-1.12-4.85-3.6-8.61-6.85-12.29-6.71-7.58-12.29-16.15-20.28-22.54-2.89-2.33-5.64-4-5.74-8.14V47.5c0-8.75-.06-17.51 0-26.25a8.1 8.1 0 013.44-6.83c2.29-1.57 5-1.39 7.62-1.87C52.33 12 55.2 11.4 58 10.63c6.17-1.74 12.26-3.69 18.59-4.78a115.12 115.12 0 0113.35-1.33c4.21-.24 8.76-1 12.92-.06a15.88 15.88 0 0112.43 17c4 3.16 7.06 8.08 6.73 13.52a16 16 0 01-.83 4.18 16.2 16.2 0 012.5 16.93z"/></g></svg>