<svg xmlns="http://www.w3.org/2000/svg" viewBox="0 0 128 128"><path d="M102 40.14H26a7.2 7.2 0 00-7.28 8l6.56 72.06a8.94 8.94 0 008.72 8h60a8.94 8.94 0 008.72-8l6.56-72.06a7.2 7.2 0 00-7.28-8zm-54 70a2 2 0 01-2 2h-8.14a2 2 0 01-2-1.86l-3.72-52a2 2 0 012-2.14H46a2 2 0 012 2zm24 0a2 2 0 01-2 2H58a2 2 0 01-2-2v-52a2 2 0 012-2h12a2 2 0 012 2zm20.13.14a2 2 0 01-2 1.86H82a2 2 0 01-2-2v-52a2 2 0 012-2h11.85a2 2 0 012 2.14zm17.38-87.48a11.51 11.51 0 00-12.83-10l-11.21 1.37L83 4.76A6.84 6.84 0 0075.75-.1L45.28 3.67a6.83 6.83 0 00-5.81 6.46l-.15 9.75-11.2 1.38a11.52 11.52 0 00-10 12.84l.47 3.81L110 26.61zm-32.76-3.08l-27.62 3.42A1.93 1.93 0 0147 21.2l.14-8.35A1.92 1.92 0 0148.79 11l25.33-3.16a1.92 1.92 0 012.09 1.41l2.16 8.07a1.92 1.92 0 01-1.62 2.4z"/></svg>