<svg data-name="troubleshoot" xmlns="http://www.w3.org/2000/svg" viewBox="0 0 128 128"><path d="M100 72a28 28 0 00-9.41 1.63L75.31 58.29l34-34 1.42 1.42a6 6 0 008.48 0l.23-.24 7.13-10a6 6 0 00-.29-8.18l-5.7-5.59a6 6 0 00-8.18-.28l-10 7.12-.23.23a6 6 0 000 8.49l1.41 1.41-34 34-18.8-18.91A26.25 26.25 0 0052 25.93 26 26 0 0019.41.79a4 4 0 00-1.82 6.7l11.86 11.87-2.12 7.92-7.92 2.13L7.54 17.54a4 4 0 00-6.7 1.82A26 26 0 0026 51.92a26.29 26.29 0 007.81-1.2l18.87 18.89-9.59 9.59a12 12 0 00-16.88.09L3.58 101.91a12 12 0 000 17l5.66 5.66a12 12 0 0017 0l22.63-22.63a12 12 0 000-17l-.09-.09 9.59-9.59 15.25 15.29A28 28 0 10100 72zM9.16 113.13a4 4 0 01.08-5.56l22.63-22.63a4 4 0 015.56-.08zm34-16.87l-22.61 22.63a4 4 0 01-5.65 0l-.09-.1 28.28-28.28.09.09a4 4 0 010 5.66zm34.4-13.07L64 69.61 58.34 64l-17-17a24.71 24.71 0 003-2.61 25 25 0 002.61-3l17 17 5.7 5.61 13.59 13.53a28.37 28.37 0 00-5.66 5.66zM100 108a8 8 0 118-8 8 8 0 01-8 8z"/></svg>