<svg xmlns="http://www.w3.org/2000/svg" viewBox="0 0 26 30"><path d="M22.3 18.6c-.5-1.3-.7-2.6-.5-4 .3-1.9 1.5-3.6 3.2-4.5-1.2-1.8-3.2-3-5.4-3.2-1.9-.2-4.6 1.3-6.1 1.3C12 8.3 9.3 6.8 7.4 7c-2.4.3-4.5 1.6-5.8 3.6-.7 1.2-1.2 2.6-1.3 4-.1.6-.1 1.3-.1 2s.1 1.4.2 2.1c.2 1.4.6 2.7 1.1 4 .5 1.3 1.2 2.5 2 3.6C5 28.6 6.8 30 7.9 30c2.1 0 4-1.4 5.6-1.4h.1c1.5 0 3.4 1.4 5.6 1.4 1 0 2.9-1.4 4.5-3.7.8-1.1 1.5-2.4 2-3.6.1-.2.2-.4.2-.6-1.6-.6-3-1.9-3.6-3.5z"/><path d="M16 0c-.1-.1-2.9.4-4.6 2.3S9.9 7 10 7.2c.1.1 2.9-.3 4.6-2.3S16.2.1 16 0z"/></svg>