<svg xmlns="http://www.w3.org/2000/svg" viewBox="0 0 115 72"><path d="M111.1 35c-3.1-3.1-8.1-3.1-11.2 0l-8.5 8.4V8c0-4.4-3.6-8-8-8h-4c-4.4 0-8 3.6-8 8v35.1L63.2 35c-3.2-3.1-8.2-3.1-11.3 0-3.1 3-3.1 7.9-.1 11l.1.1 24 23.6c3.2 3.1 8.2 3.1 11.3 0l24-23.6c3.1-3 3.1-7.9.2-10.9-.1-.1-.2-.1-.3-.2zM7.5 8h40c3.3 0 6 2.7 6 6s-2.7 6-6 6h-40c-3.3 0-6-2.7-6-6s2.7-6 6-6zm0 24h28c3.3 0 6 2.7 6 6s-2.7 6-6 6h-28c-3.3 0-6-2.7-6-6s2.7-6 6-6zm0 20h16c3.3 0 6 2.7 6 6s-2.7 6-6 6h-16c-3.3 0-6-2.7-6-6s2.7-6 6-6z"/></svg>