<svg xmlns="http://www.w3.org/2000/svg" viewBox="0 0 30 30"><path d="M15 30C6.7 30 0 23.3 0 15S6.7 0 15 0s15 6.7 15 15-6.7 15-15 15zm0-28.9C7.3 1.1 1.1 7.3 1.1 15S7.3 28.9 15 28.9 28.9 22.7 28.9 15 22.7 1.1 15 1.1z"/><path d="M26.5 15c0 1.5-.3 3-.8 4.3H22c-1.5 0-2.2-4-2.3-4.9s-.4-5.7-2.8-5.7H5.3c3.4-5.3 10.5-6.9 15.8-3.5 3.4 2.2 5.4 5.9 5.4 9.8z"/><circle cx="10.3" cy="19.7" r="2"/><path d="M21.3 24.4l.1.1C16.1 28.1 9 26.6 5.5 21.3c-2-3-2.5-6.7-1.3-10h9.1c3 0 2.7 4 2.7 5.8 0 6.1 2.5 7.3 5.3 7.3zM14 19.7c0-2-1.6-3.7-3.7-3.7-2 0-3.7 1.6-3.7 3.7s1.6 3.7 3.7 3.7c2.1-.1 3.7-1.7 3.7-3.7z"/></svg>