<svg xmlns="http://www.w3.org/2000/svg" viewBox="0 0 283.3 52"><path d="M35.4 16.4h-22L16.2 0H8.9L1.4 34.7s-2.8 8.2 3.7 8.2h26.8s5.2.2 6.8-6.8c.9-3.8 1.6-7.7 1.9-11.5.2-.2 1.6-8.2-5.2-8.2zm-3.5 18.1H10.8l1.7-9.6H34l-2.1 9.6zM0 48.8h283.3v3.5H0v-3.5zm49.3-20.4H53l-1.2 5.9c1-1.6 2.3-2.1 5.1-2.1 1.2 0 2.4.2 3.5.5.9.3 1.4 1.2 1.4 2.3-.2 1.6-.3 3-.9 4.4-.3 1.2-1.2 2.1-2.3 2.6-1.2.3-2.4.5-3.8.5-3.3 0-4-.3-4.4-2.1l-.4 1.9h-3.5l2.8-13.9zm2.3 7.7c-.3.7-.5 1.6-.7 2.4 0 1 .5 1.4 3.3 1.4 1.7 0 2.3-.2 3-.7.3-.3.7-.9.7-1.4.2-.5.2-1 .2-1.6 0-.5-.2-.9-.7-1-.7-.2-1.4-.3-2.3-.2-2.3 0-3.2.2-3.5 1.1zM65 32.6h3.5l-.5 2.3c.7-1 .9-1.4 1.4-1.6 1-.5 2.1-.9 3.1-.7 2.3 0 3.3.7 3.3 2.3 0 .7-.2 1.6-.3 2.3h-3.3c0-.2.2-.5.2-.7 0-.7-.5-1-1.6-1-1.7 0-2.6.7-3 2.6l-.9 4.5h-3.5l1.6-10zm12 0h4l1.4 7.1 4.7-7.1h4l-8 11.7c-1.4 2.1-2.1 2.4-4.5 2.4H77l.5-2.4c1.9 0 2.1 0 3-1.2l-.3-.7-3.2-9.8zm23.9 3.6V36c0-.9-.5-1-3-1-.9-.2-1.7 0-2.6.5-.7.9-1.2 1.9-1 3 0 .5.2.9.7 1.2.7.2 1.4.2 2.1.2 2.3 0 3-.3 3.3-1.4h3.7c-.7 3.1-2.3 4-7.5 4-1.6.2-3.3-.2-4.9-.7-.9-.5-1.4-1.4-1.2-2.4 0-1.7.5-3.5 1.6-5.1 1-1.6 2.8-1.9 6.6-1.9 1.7-.2 3.3.2 4.9.7.7.3 1 1 1 1.9 0 .5 0 .9-.2 1.4l-3.5-.2zm18.3 3c-.2 1.2-.9 2.3-2.1 2.6-1.6.5-3.1.7-4.9.5-1.6.2-3.3 0-4.9-.5-.9-.5-1.4-1.4-1.4-2.4s.3-2.1.5-3.1c.3-1.7 1.7-3.1 3.3-3.5 1.4-.3 2.6-.3 4-.3 1.2 0 2.6 0 3.8.2s2.1 1.2 1.9 2.4c0 .7-.2 1.2-.3 1.9l-.2 1h-9.4c0 .3-.2.7-.2 1 0 .9.5 1.2 3 1.2 2.1 0 2.6-.2 2.8-1h4.1zm-3-3v-.5c0-.9-.5-1-2.8-1-.9-.2-1.7 0-2.6.5-.3.3-.7.7-.7 1.2l6.1-.2zm20.8 0V36c0-.9-.5-1-3-1-.9-.2-1.7 0-2.6.5-.7.9-1.2 1.9-1 3 0 .5.3.9.7 1.2.7.2 1.4.2 2.1.2 2.3 0 3-.3 3.3-1.4h3.7c-.7 3.1-2.3 4-7.5 4-1.6.2-3.3 0-4.9-.7-.9-.5-1.4-1.4-1.2-2.4 0-1.7.5-3.5 1.6-5.1 1-1.6 2.8-1.9 6.6-1.9 1.7-.2 3.3.2 4.9.7.7.3 1 1 1 1.9 0 .5 0 .9-.2 1.4l-3.5-.2zm17.6-3.6c1.6.3 2.1 1 2.1 2.3-.2 1-.3 2.3-.5 3.3-.5 2.3-1.2 3-2.6 3.7-1.7.3-3.5.7-5.4.5-1.7.2-3.3 0-4.9-.5-.7-.3-1.2-1.2-1-2.1.2-1.2.3-2.4.7-3.7.9-3.1 2.3-3.8 7.7-3.8 1.2.1 2.6.1 3.9.3zm-7.5 2.9c-.3.3-.7.9-.7 1.6-.2.5-.2 1-.3 1.6 0 1 .7 1.2 3 1.2 2.1 0 2.6-.2 3.1-.7.3-.3.5-.9.7-1.4.2-.5.2-1 .3-1.6 0-.5-.3-.9-.7-1-.7-.2-1.6-.2-2.3-.2-2.1 0-2.6.2-3.1.5zm13-2.9h3.5l-.5 2.3c.7-1 .9-1.4 1.4-1.6 1-.5 2.1-.9 3.1-.7 2.3 0 3.3.7 3.3 2.3 0 .7-.2 1.6-.3 2.3h-3.3c0-.2.2-.5.2-.7 0-.7-.5-1-1.6-1-1.7 0-2.6.7-3 2.6l-1 4.5h-3.5l1.7-10zm16.1 2.1c.9-1.9 1.7-2.3 5.1-2.3 3.7 0 5.1.7 5.1 2.6-.2 1.9-.5 3.7-1.2 5.4-.9 1.6-2.4 2.1-6.1 2.1-1.2.2-2.4-.2-3.5-.7-.3-.3-.5-.9-.5-1.2l-1.2 6.1h-3.7l3-13.9h3.5l-.5 1.9zm-.2 1.4c-.3.7-.5 1.6-.5 2.4 0 1 .5 1.2 3.1 1.2 1.9 0 2.4-.2 3-.7.3-.3.5-.9.7-1.6.2-.5.2-.9.2-1.4s-.2-.9-.5-1c-.7-.2-1.6-.3-2.3-.2-2.7.2-3.2.4-3.7 1.3zm24.2-3.5c1.6.3 2.1 1 2.1 2.3-.2 1-.3 2.3-.5 3.3-.5 2.3-1.2 3-2.6 3.7-1.7.3-3.5.7-5.4.5-1.7.2-3.3 0-4.9-.5-.7-.3-1.2-1.2-1-2.1.2-1.2.3-2.4.7-3.7.9-3.1 2.3-3.8 7.7-3.8 1.1.1 2.5.1 3.9.3zm-7.5 2.9c-.3.3-.7.9-.7 1.6-.2.5-.2 1-.3 1.6 0 1 .7 1.2 3 1.2 2.1 0 2.6-.2 3.1-.7.3-.3.5-.9.7-1.4.2-.5.2-1 .3-1.6 0-.5-.3-.9-.7-1-.7-.2-1.6-.2-2.3-.2-2 0-2.6.2-3.1.5zm12.9-2.9h3.5l-.5 2.1c.7-1 .9-1.4 1.4-1.6 1-.5 2.1-.9 3.1-.7 2.3 0 3.3.7 3.3 2.3 0 .7-.2 1.6-.3 2.3h-3.3c0-.2.2-.5.2-.7 0-.7-.5-1-1.6-1-1.7 0-2.6.7-3 2.6l-1 4.5h-3.5l1.7-9.8zm20.6 8c-.9 1.6-1.7 1.9-4.9 1.9-3.5 0-4.5-.5-4.5-1.9 0-1 .3-2.1 1-3.1.9-.9 2.1-1.2 3.3-1.2h2.6c2.3 0 3 .2 3.1 1.2l.2-1c0-.2.2-.5.2-.7 0-.7-.5-.9-2.8-.9s-2.4.2-2.6.9h-3.5c.2-1 .9-2.1 1.9-2.4 1-.5 2.1-.7 5.4-.7 1.6-.2 3.1 0 4.5.7.7.3 1 1.2.9 1.9 0 .5 0 .9-.2 1.4l-1.2 6.1h-3.5v-2.2zm-4.9-2.3c-.5.2-.9.5-.9 1.2 0 .3.2.5.5.7.9.2 1.6.2 2.4.2.7 0 1.4 0 2.3-.2.5-.2.9-.7.9-1.2 0-.7-.5-.9-3-.9-.8.1-1.5.1-2.2.2zm22.1-.1l-.2.7c-.3 1.6-.7 2.3-1.2 2.8-1 .7-2.4 1-3.8.9-1.2.2-2.6 0-3.7-.5-.5-.3-.9-1-.9-1.7 0-.3 0-.9.2-1.2l.9-4h-1.9l.5-2.4h1.7l.5-2.3h3.7l-.5 2.3h5.8L244 35h-6l-.7 3.1c0 .3-.2.5-.2.9 0 .7.3.9 1.4.9 1.2 0 1.6-.3 1.7-1.4l.2-.3h3zm3.9-5.6h3.5l-2.1 9.8H245l2.3-9.8zm.8-4.2h3.7l-.5 2.6h-3.5l.3-2.6zm16.4 4.2c1.6.3 2.1 1 2.1 2.3-.2 1-.3 2.3-.5 3.3-.5 2.3-1.2 3-2.6 3.7-1.7.3-3.5.7-5.4.5-1.7.2-3.3 0-4.9-.5-.7-.3-1.2-1.2-1-2.1.2-1.2.3-2.4.7-3.7.9-3.1 2.3-3.8 7.7-3.8 1.1.1 2.5.1 3.9.3zm-7.7 2.9c-.3.3-.7.9-.7 1.6-.2.5-.2 1-.3 1.6 0 1 .7 1.2 3 1.2 2.1 0 2.6-.2 3.1-.7.3-.3.5-.9.7-1.4.2-.5.2-1 .2-1.6 0-.5-.2-.9-.7-1-.7-.2-1.6-.2-2.3-.2-1.7 0-2.4.2-3 .5zm13.1-2.9h3.5l-.5 2.3c.9-1.9 2.1-2.4 5.1-2.4 1 0 2.1.2 3.1.5.9.5 1.4 1.4 1.4 2.3 0 .7-.2 1.4-.2 1.9l-1 5.2h-3.5l1-5.1c0-.3.2-.5.2-.9 0-1-.5-1.4-2.6-1.4-2.4 0-3.1.7-3.7 2.8l-.9 4.4h-3.7l1.8-9.6z"/></svg>