<svg xmlns="http://www.w3.org/2000/svg" viewBox="0 0 105.88 102"><defs><style>.icon-fill{fill:#fff}</style></defs><path d="M104.25 8.42l-6.84-6.79c-2.35-2.33-6.21-2.14-8.8.43L47.87 42.51 35.29 30a6.5 6.5 0 00-9.12 0l-5.91 5.87a6.39 6.39 0 000 9L37 61.58 43.49 68l.38.37a5.63 5.63 0 004 1.63 6.82 6.82 0 004.69-2v-.05l51.15-50.79a7 7 0 002-3.78 5.63 5.63 0 00-1.46-4.96z" class="icon-fill"/><path d="M88 90a4 4 0 01-4 4H12a4 4 0 01-4-4V18a4 4 0 014-4h36V6H12A12 12 0 000 18v72a12 12 0 0012 12h72a12 12 0 0012-12V54h-8z" class="icon-fill"/></svg>