<svg data-name="corporate" xmlns="http://www.w3.org/2000/svg" viewBox="0 0 128 128"><path d="M116 40H76a11.8 11.8 0 00-4 .7V12A12 12 0 0060 0H12A12 12 0 000 12v112a4 4 0 004 4h120a4 4 0 004-4V52a12 12 0 00-12-12zm-84 60a4 4 0 01-4 4h-8a4 4 0 01-4-4v-8a4 4 0 014-4h8a4 4 0 014 4zm0-24a4 4 0 01-4 4h-8a4 4 0 01-4-4v-8a4 4 0 014-4h8a4 4 0 014 4zm0-24a4 4 0 01-4 4h-8a4 4 0 01-4-4v-8a4 4 0 014-4h8a4 4 0 014 4zm0-24a4 4 0 01-4 4h-8a4 4 0 01-4-4v-8a4 4 0 014-4h8a4 4 0 014 4zm24 72a4 4 0 01-4 4h-8a4 4 0 01-4-4v-8a4 4 0 014-4h8a4 4 0 014 4zm0-24a4 4 0 01-4 4h-8a4 4 0 01-4-4v-8a4 4 0 014-4h8a4 4 0 014 4zm0-24a4 4 0 01-4 4h-8a4 4 0 01-4-4v-8a4 4 0 014-4h8a4 4 0 014 4zm0-24a4 4 0 01-4 4h-8a4 4 0 01-4-4v-8a4 4 0 014-4h8a4 4 0 014 4zm64 92h-8V86a6 6 0 00-6-6H86a6 6 0 00-6 6v34h-8V64h48zm0-64H72v-4a4 4 0 014-4h40a4 4 0 014 4z"/></svg>