<svg xmlns="http://www.w3.org/2000/svg" viewBox="0 0 200 100"><path fill="none" d="M0 2.5h200v95H0z"/><path fill-rule="evenodd" d="M135.21 34.44v32.61h21.32V56.87h-9.58V34.44h-11.74zm14.63 3.99V35h-1.29v-.59h3.27V35h-1.32v3.4zm2.42 0v-4h1l1 3.19 1-3.19h1v4h-.61v-3.35l-1 3.35h-.6L152.87 35v3.4zm-93.89 6.44h-2.95v12.26h3.32a5.53 5.53 0 005.11-5.84c-.01-6.21-4.22-6.42-5.48-6.42zm27.17 4.64l-3.49-2.11 15.79-10.11-6.63-4.79-16.79 10.9s-4.37-9-12.79-9H43.48V67h20.1c9.63 0 11.16-9.92 11.16-9.92L92.21 67.5 112 54.45V67h21.32V56.87h-9.58V34.44H112v10.32L95.11 55.34l-3.2-1.95 16-10.09-6.24-4.19z"/></svg>