<svg xmlns="http://www.w3.org/2000/svg" viewBox="0 0 115 72"><path d="M110.7 25.9l-24-23.6c-3.2-3.1-8.2-3.1-11.3 0l-24 23.6c-3.1 3-3.1 7.9-.1 11l.1.1c3.2 3.1 8.2 3.1 11.4 0l8.2-8.1V64c0 4.4 3.6 8 8 8h4c4.4 0 8-3.6 8-8V28.6l8.5 8.4c3.1 3.1 8.1 3.1 11.2 0 3.1-3 3.1-7.9.2-10.9-.1-.1-.2-.1-.2-.2zM7.5 52h40c3.3 0 6 2.7 6 6s-2.7 6-6 6h-40c-3.3 0-6-2.7-6-6s2.7-6 6-6zm0-24h28c3.3 0 6 2.7 6 6s-2.7 6-6 6h-28c-3.3 0-6-2.7-6-6s2.7-6 6-6zm0-20h16c3.3 0 6 2.7 6 6s-2.7 6-6 6h-16c-3.3 0-6-2.7-6-6s2.7-6 6-6z"/></svg>