<svg xmlns="http://www.w3.org/2000/svg" viewBox="0 0 128 128"><defs><style>.external-fill{fill:#a3a8b2}</style></defs><g id="external"><path id="external-box" class="external-fill" d="M116 80a27.8 27.8 0 01-12-2.7V104H24V24h26.7a27.8 27.8 0 010-24H20A20 20 0 000 20v88a20 20 0 0020 20h88a20 20 0 0020-20V77.3a27.8 27.8 0 01-12 2.7z"/><path id="external-arrow" class="external-fill" d="M116 0H76a12 12 0 000 24h5.4L42.7 62.7a8 8 0 000 11.3L54 85.3a8 8 0 0011.3 0L104 46.6V52a12 12 0 0024 0V12a12 12 0 00-12-12z"/></g></svg>