<svg xmlns="http://www.w3.org/2000/svg" viewBox="0 0 128 128"><path d="M124 24h-18a19.59 19.59 0 006-13.83c0-5.27-2.89-7.65-4.61-8.61-9.88-5.48-33.88 7.8-43.59 13.66C54 9 31.24-4.16 21.08 1.29 18.76 2.53 16 5.21 16 10.88A18.6 18.6 0 0021.71 24H4a4 4 0 00-4 4v94a6 6 0 006 6h116a6 6 0 006-6V28a4 4 0 00-4-4zM103.51 8.54c.13.08.49.28.49 1.63 0 7.57-8.08 13.74-18 13.74-1.63 0-3.23 0-4.76.05h-5.31c-3.31-.06-6.09-.37-7.17-1.43a2.12 2.12 0 01-.46-.73c14.14-8.42 31.05-15.56 35.21-13.26zM46.76 24c-1.54 0-3.13-.06-4.76-.06-9.93 0-18-5.85-18-13 0-2.09.65-2.44.86-2.55a4.82 4.82 0 012.28-.45c6.37 0 20.57 6.58 32.54 14.19a1.56 1.56 0 01-.35.52c-1.07 1-3.88 1.35-7.22 1.41H48.8zM56 120H8V71.63h48zm0-64.37H8V32h48zM120 120H72V71.63h48zm0-64.37H72V32h48z"/></svg>