<svg xmlns="http://www.w3.org/2000/svg" viewBox="0 0 200 100"><path fill="none" d="M0 2.5h200v95H0z"/><path d="M52.97 35.32v12.27H40.13V35.32H35.9v29.4h4.23V51.46h12.84v13.26h4.23v-29.4h-4.23zm22.95.49l-.21-.49h-4.57l-11.68 29.4h4.59l3.1-7.66h12.74l3.33 7.66h4.88zm-2.49 5.08l5.06 12.29h-9.87l4.58-11.62zm32.32 11.25a14.38 14.38 0 00-3.85-3.24l-.94-.54-1-.54-1.76-1c-.52-.29-1-.59-1.45-.87a6.26 6.26 0 01-1.67-1.49 2.93 2.93 0 01-.5-1.77v-.91a3.83 3.83 0 011.24-2 5.59 5.59 0 013.64-.9 13.35 13.35 0 012.75.28 13.21 13.21 0 012.6.84l1 .43.6-4.13-.57-.24a5.07 5.07 0 00-.68-.24l-.62-.16a20 20 0 00-2.48-.5 19.62 19.62 0 00-2.52-.16c-3.43 0-5.88.8-7.29 2.37a7.81 7.81 0 00-2.09 5.34 6.63 6.63 0 001.54 4.57 13.87 13.87 0 003.1 2.62l1.2.6c.35.18.68.35 1 .51h.08l1.21.63c.38.2.74.41 1.09.62a10.14 10.14 0 012.62 2.12 4.07 4.07 0 01.85 2.75 3 3 0 01-1.22 2.66 6.93 6.93 0 01-3.11 1.27 3.53 3.53 0 01-.58.08h-1.28a9 9 0 01-1.75-.24 14.53 14.53 0 01-1.63-.49A11.1 11.1 0 0192 60l-.42-.18-1.11-1.14-.53 4.91.58.22a20.08 20.08 0 003.18.91 18.28 18.28 0 003.57.33c3.52 0 6.1-.81 7.66-2.41a7.5 7.5 0 002.36-5.35 8 8 0 00-1.54-5.15zm7.28 8.7V35.32h-4.24v29.4h15.59v-3.88h-11.35zm17.92 0V51.5h10.36v-3.87h-10.36V39.2h10.87v-3.88h-15.11v29.4h15.87v-3.88h-11.63zm27.84-8.1a4.37 4.37 0 01-.19-.43 4.45 4.45 0 00-.29-.6 5 5 0 00-1-1.42 8.18 8.18 0 002.47-1.64 6.74 6.74 0 002.08-5.1c0-.29 0-.77-.1-1.5a7.68 7.68 0 00-.73-2.49 8 8 0 00-2.73-2.92 10.28 10.28 0 00-5.73-1.32h-8v29.4h4.24V51.9h2.69a3.51 3.51 0 012 .37 3.08 3.08 0 01.89 1.23l.06.11.09.15.05.12 4.6 10.37.21.48h4.67zm-1.37-9.15a3.75 3.75 0 01-1.57 3.16 6.39 6.39 0 01-4 1.27h-3V39.2h3.92a4.71 4.71 0 013.07.81 4.26 4.26 0 011.33 1.83 4.05 4.05 0 01.22.89 7.33 7.33 0 01.02.86z"/></svg>