<svg xmlns="http://www.w3.org/2000/svg" viewBox="0 0 128 128"><path data-name="help" d="M64 0a64 64 0 1064 64A64 64 0 0064 0zm0 101a8.52 8.52 0 118-8.5 8.26 8.26 0 01-8 8.5zm15.52-36.95c-2.91 1.88-5.12 3.05-6.74 3.91l-.36.19c-.05 1.35-.05 3.36-.05 5.45a8.4 8.4 0 11-16.79 0c0-11.17 0-15.8 9.46-20.79 1.41-.75 3.18-1.68 5.46-3.16 1.4-.91 1.91-1.78 1.92-2.14s-.54-1.42-2.07-2.45c-2.27-1.54-6.5-2.07-10.29-1.3-2.72.56-5 1.77-5.86 3.16a8.31 8.31 0 01-11.63 2.44 8.63 8.63 0 01-2.4-11.83c3.41-5.28 9.29-9 16.55-10.51 8.31-1.71 16.89-.28 23 3.83s9.61 10.3 9.54 16.84-3.65 12.42-9.74 16.36z" fill="#a3a8b2"/></svg>