<svg data-name="knowledgebase" xmlns="http://www.w3.org/2000/svg" viewBox="0 0 128 128"><path d="M104 116H24a4 4 0 010-8h80a4 4 0 010 8z"/><path d="M116 16a4 4 0 00-4 4v100H24a8 8 0 010-16h80a4 4 0 004-4v-.38a5.27 5.27 0 000-.62V12A12 12 0 0096 0H20A12 12 0 008 12v100a16 16 0 0016 16h90a6 6 0 006-6V20a4 4 0 00-4-4zM56 80a8 8 0 118 8 8 8 0 01-8-8zm-6.51-58a20.52 20.52 0 0129 29A45.75 45.75 0 0172 56.44V61a8 8 0 01-16 0v-.44c0-8.93 0-12.63 6.25-16.82a29.06 29.06 0 005-4.09 4.52 4.52 0 00-6.4-6.39A8 8 0 0149.49 22zM16 12a4 4 0 014-4h8v88h-4c-.49 0-1 0-1.45.07h-.36c-.47 0-.94.12-1.4.21h-.07c-.44.09-.87.21-1.3.34l-.32.1c-.44.14-.88.29-1.3.47h-.11c-.39.17-.77.36-1.14.55l-.3.16-.25.14z"/></svg>