<svg xmlns="http://www.w3.org/2000/svg" viewBox="0 0 200 100"><path fill="none" d="M0 2.5h200v95H0z"/><path d="M43.4 49.68l14.44-17.21H47.61l-11.7 13.94V32.47h-8.29v35.58h8.29V53l12.67 15.1h10.24zm33.69 4.78a6.82 6.82 0 11-6.82-6.82 6.82 6.82 0 016.82 6.82m6.8.14A13.89 13.89 0 1070 68.5a13.89 13.89 0 0013.9-13.89m23.31-.14a6.82 6.82 0 11-6.82-6.82 6.82 6.82 0 016.82 6.82m6.8.14V31.5h-7.55v10.76A13.88 13.88 0 10114 54.61m21 4c0 2.53-2.59 3.59-3.61 3.59H127a3.05 3.05 0 01-3.06-3.2c0-1.9 1.4-3.11 3.59-3.11H135v2.66m7.19 1V49.18S140.64 41 130.33 41c-8.74 0-9.74 1.24-9.74 1.24V48s2.06-.79 8.37-.79 5.85 4 5.85 4-18.18-2.6-18.18 8.42c0 0 .07 8.92 12.45 8.92s13.09-8.92 13.09-8.92m18.89-5l10.34-12.41h-9.75l-8.29 9.87V31.5h-7.55v36.55h7.55V57.6l8.77 10.45h10.24z"/></svg>