<svg xmlns="http://www.w3.org/2000/svg" viewBox="0 0 300 100"><path fill="none" d="M-4.11 2.5h300.14v95H-4.11z"/><path fill-rule="evenodd" d="M152.87 61l.13-2.2c-4.07.5-9.29-1.57-9.12-6.3 0-4.56 3.73-6.3 9.12-6.22v-2.23c-6-.17-12.36 1.65-12.52 8.45.08 6.3 5.39 9 12.43 8.46zm-48.87.37a8.83 8.83 0 10-8.5-8.87 8.77 8.77 0 008.5 8.87zm0-2.4c3 0 5.47-2.9 5.47-6.47S107 46.12 104 46.12 98.65 49 98.65 52.5 101.06 59 104 59zm131.53 2.4A8.83 8.83 0 10227 52.5a8.71 8.71 0 008.54 8.87zm0-2.4c3 0 5.39-2.9 5.39-6.47s-2.4-6.38-5.39-6.38-5.39 2.9-5.39 6.38 2.41 6.5 5.39 6.5zM79.25 44.21h2.9v16.83h-2.9V44.21zm55.38 0h2.91v16.83h-2.91V44.21zm67.57 0h2.91v16.83h-2.91V44.21zm-74.61 0h2.73V61h-2.4c-2.32-5.72-6.88-11.27-9.87-13.1V61h-2.73V44.21h2.07c4.48 2.82 8.37 6.88 10.2 10.45V44.21zm94.18 0h2.74V61h-2.41c-2.32-5.72-6.88-11.27-9.86-13.1V61h-2.74V44.21h2.07c4.48 2.82 8.38 6.88 10.2 10.45V44.21zM87.79 51.09a20.77 20.77 0 017 9.95H91.6a20.47 20.47 0 00-7.87-9.53l7-7.3h3.57l-6.47 6.88zm66.33 9.95h2.82l4.72-10.94 5.72 10.94h3.32l-8.95-17.08-7.63 17.08zm92.69-16.83h2.98v14.68h6.72v2.15h-9.7V44.21zm19.98 0v2.16h-4.31V61h-2.9V46.37h-4.32v-2.16zm-1.74 16.83h2.82l4.72-10.94 5.72 10.94h3.32l-8.95-17.08-7.63 17.08zM177.5 61h3.15c.74-3.65 1.57-7.38 2.4-11a49.61 49.61 0 014.4 9.61h2.15A49.61 49.61 0 01194 50c.82 3.64 1.65 7.37 2.4 11h3.15c-1.55-5.68-2.65-11.32-4.81-17a52.79 52.79 0 00-6.22 11.36c-1.07-3.56-4.06-8.45-6.21-11.36-2.16 5.72-3.24 11.36-4.81 17.08zM58.36 34.51a24.45 24.45 0 017.54 10.86c0 .33-.16.58-.41.58l-4 .17-21.81.16H18.56l-6.8-.08a.57.57 0 01-.33-.5 17.78 17.78 0 012.24-4.89C20.14 30.61 32 26.14 44.1 28a30 30 0 0114.26 6.47zM65.65 59c.34.08.42.33.34.66-3.24 10.42-13.93 17.13-24.54 17.88-11.53.75-22.56-4.14-28.28-13.84a18.24 18.24 0 01-1.65-4.15.4.4 0 01.24-.5l1-.16 16.5-.09h32.58l3.81.17zm.75-3.15c.75.5.17 1.41.08 2.07-.08.17-.08.33-.41.33l-4.15-.08-14.42-.86-9.45-.31-15.05.64-9.12.58a10.06 10.06 0 01-2.74 0 3.28 3.28 0 01-.41-2c.58-.49 1.32-.16 2.07-.41l21.06.58h10.65l14-.42c2.57-.16 5.39-.16 7.88-.16zm.66-2.74a4.35 4.35 0 01-.06 1.8c-.41.49-1 .25-1.49.25L55 54.74l-10.36-.5-12.6.09-8.63.25-11.41.74a2.87 2.87 0 01-1.41-.16 3.5 3.5 0 01-.25-2.08l.34-.16h2.65l16.91.66 10.28.08 7.88-.16 17.24-.75c.42.08 1.08-.16 1.41.33zM66.9 50c.08.58.41 1.74-.25 2.15H63l-14.34-.66H35.72l-8.29.16-15.83.67c-.5-.17-1 .08-1.25-.33a7 7 0 010-1.83c.42-.58 1.08-.16 1.58-.33l17.74 1c4.89.09 10.12 0 14.84 0l10.28-.49 10.62-.67c.49 0 1.16-.16 1.49.34zm-.67-3.15a2.52 2.52 0 01.34 2.07l-.25.16h-5.89l-14.51-.33-10.53-.08-10.11.25-12.44.33-1.84-.06c-.83-.42-.25-1.33-.17-1.91.17-.17.25-.41.5-.41l4.14.08 12.44.66 11.19.5L58.94 47c2.4-.16 4.72-.41 7-.41l.24.25z"/></svg>