<svg xmlns="http://www.w3.org/2000/svg" viewBox="0 0 200 100"><path fill="none" d="M0 2.5h200v95H0z"/><path d="M58.26 32.17H46.7l-8.58 8.58H25.69v23.37h11.58l8.05 8.05h12.94V61l-8.74-8.84 8.74-8.64zm-20.2 30.67l-11.85-10.7 11.85-10.71zM48.6 63h-9.82l9.82-9.82zm0-11.91l-9.82-9.82h9.82zm18.85 12.83V40.88H63v23.04h4.45zm12.49-23.04h-4.72l-7.59 11.17 8.29 11.87h5.15l-8.9-12.48 7.77-10.56zm4.67 0h-3.8v11.17a1.88 1.88 0 001.66 1.83h9.25v6.37H82v3.67h11.64a2.46 2.46 0 002.53-2.44v-20.6h-3.58v9.69h-8v-9.69zm28.67 0H99.66a1.57 1.57 0 00-1.57 1.57v19.9a1.57 1.57 0 001.57 1.57h13.62a1.57 1.57 0 001.57-1.57v-19.9a1.57 1.57 0 00-1.57-1.57zm-2.88 19.38h-7.77V44.89h7.77zm20.43 0h-9.78V44.89h9.78v-4h-12.75a1.57 1.57 0 00-1.57 1.57v19.9a1.57 1.57 0 001.57 1.57h12.74v-3.67zm15.27-15.37v-4h-12.74a1.57 1.57 0 00-1.57 1.57v19.9a1.57 1.57 0 001.57 1.57h12.74v-3.67h-9.78v-6.11h9.34v-4h-9.34v-5.26zm1.49-4.01v23h3.93V45H159v5.85h-5.59l7.16 13.09h4.71l-5.85-10.3h2.36a1.51 1.51 0 001.48-1.4v-9.09a2.24 2.24 0 00-2.18-2.27z"/><path d="M177.44 40.88h-12V45h10.86v5.85h-9.51a1.89 1.89 0 00-2 1.83v8.9a2.47 2.47 0 002.62 2.36h12.74V43c-.01-1.25-1.58-2.12-2.71-2.12zm-1.14 19.29h-7.5v-6h7.51zm7.31-20.66a2.12 2.12 0 102.12 2.12 2 2 0 00-2.12-2.12zm0 3.75a1.63 1.63 0 111.51-1.63 1.54 1.54 0 01-1.51 1.63z"/><path d="M184 41.77a.53.53 0 00.55-.59c0-.52-.35-.69-.94-.69h-.85v2.28h.49v-1h.23l.53 1h.58zm-.32-.35h-.43v-.55h.34c.18 0 .44 0 .44.25s-.12.3-.34.3z"/></svg>