<svg xmlns="http://www.w3.org/2000/svg" viewBox="0 0 128 41.65"><defs><style>.magenta-fill{fill:#fa2a92}.midnight-fill{fill:#202234}</style></defs><path id="logo" data-name="logo" class="magenta-fill" d="M91.26 41.65l.63-1.65-.63 1.65z"/><path class="magenta-fill" d="M92 19.2l-5.69 14.89-5.73-14.89c-1.73-4.42-5.89-4.42-9.54-4.42l9.68 25.17A2.8 2.8 0 0083 41.6h6.6a2.8 2.8 0 002.29-1.65l9.68-25.17c-3.64 0-7.81 0-9.57 4.42zM81.36 41.65L80.72 40l.64 1.65"/><path class="midnight-fill" d="M33.49 14.82H11.66a2.06 2.06 0 01-2.06-2.06v-1.23a2.06 2.06 0 012.06-2.06H38C38 4.54 34.36.54 29.88.54H8.66C4.11.54.42 4.6.42 9.6v10.28A4.14 4.14 0 004.54 24h25.94a2.06 2.06 0 012.06 2.06v4.29a2.06 2.06 0 01-2.06 2.06H0c0 5.07 3.74 9.18 8.35 9.18h25.14c4.55 0 8.24-4.06 8.24-9.06v-8.65c0-5-3.73-9.06-8.24-9.06z"/><path d="M66.16 14.82H44.62a6.63 6.63 0 006.63 6.63H62.7a1 1 0 011 1v1.91a1 1 0 01-1 1H48.61a3.83 3.83 0 00-3.83 3.83v8.37a4.14 4.14 0 004.13 4.13h17.25a4.14 4.14 0 004.13-4.13V18.95a4.14 4.14 0 00-4.13-4.13zM52.87 35a1.66 1.66 0 01-1.62-2 1.69 1.69 0 011.67-1.29h9A1.69 1.69 0 0163.59 33 1.66 1.66 0 0162 35z" fill="#0073c0"/><path d="M110.7 31.4h10.62a6.6 6.6 0 006.6-6.6v-5.85a4.14 4.14 0 00-4.13-4.13h-17.25a4.14 4.14 0 00-4.13 4.13v18.52a4.14 4.14 0 004.13 4.13h14.86a6.49 6.49 0 006.6-6.38h-17.3a1.65 1.65 0 01-1.7-1.65V33a1.65 1.65 0 011.7-1.6zm9.05-9.95a1.66 1.66 0 011.62 2 1.69 1.69 0 01-1.67 1.29h-9a1.69 1.69 0 01-1.7-1.26 1.66 1.66 0 011.62-2z" fill="#f9c035"/><path class="midnight-fill" d="M51 2a2.86 2.86 0 00-1.25-.3 2.77 2.77 0 00-1.36.3 2.6 2.6 0 00-1.34 2.31 2.64 2.64 0 001.34 2.33 2.73 2.73 0 001.39.36A3 3 0 0051 6.75 3.84 3.84 0 0052.1 6l1.19 1.23a5.4 5.4 0 01-1.68 1.12 4.89 4.89 0 01-1.94.41 5 5 0 01-2.39-.58 4.34 4.34 0 01-1.69-1.59A4.24 4.24 0 0145 4.36a4.09 4.09 0 01.63-2.22 4.39 4.39 0 011.7-1.57A5.16 5.16 0 0149.75 0a5.08 5.08 0 011.92.38 4.86 4.86 0 011.61 1L52.1 2.8A3.38 3.38 0 0051 2zM62.22.57A4.41 4.41 0 0164 2.15a4.09 4.09 0 01.63 2.23A4.12 4.12 0 0164 6.61a4.43 4.43 0 01-1.78 1.59 5.46 5.46 0 01-4.89 0 4.45 4.45 0 01-1.73-1.58 4.11 4.11 0 01-.6-2.24 4.09 4.09 0 01.63-2.23 4.42 4.42 0 011.7-1.58 5.53 5.53 0 014.89 0zM58.42 2a2.69 2.69 0 00-1 1A2.6 2.6 0 0057 4.38a2.59 2.59 0 00.38 1.37 2.8 2.8 0 001 1 2.71 2.71 0 001.38.36 2.7 2.7 0 002.71-2.72A2.64 2.64 0 0062.15 3a2.7 2.7 0 00-2.35-1.34 2.78 2.78 0 00-1.38.34zM67.23.29h2.23l2.76 5.17L75 .29h2.22V8.7h-1.83V2.89l-2.51 5h-1.3l-2.58-5V8.7h-1.77zm20.01.52A2.69 2.69 0 0188.18 3a2.91 2.91 0 01-.95 2.32 3.92 3.92 0 01-2.66.83h-1.79V8.7h-2V0h3.83a4.08 4.08 0 012.63.81zm-1.55 3.45a1.29 1.29 0 00.44-1.06 1.24 1.24 0 00-.44-1 2 2 0 00-1.28-.35h-1.63v2.77h1.63a2 2 0 001.28-.36zM101.4 8.7l-.65-1.53h-3.84l-.65 1.53H94L97.86.29h2.06l3.78 8.42zm-4-3.32h2.83l-1.39-3.3zM112.36.29h2V8.7h-1.82l-4.3-5.41V8.7h-2V.29h1.82l4.3 5.43zm11.79.53a4 4 0 011.65 1.49 4.07 4.07 0 01.59 2.18 4 4 0 01-.6 2.18 4.07 4.07 0 01-1.68 1.49 5.44 5.44 0 01-2.45.53H118V.29h3.76a5.3 5.3 0 012.39.53zm-1.18 6a2.41 2.41 0 00.94-.94 2.79 2.79 0 00.34-1.38 2.73 2.73 0 00-.36-1.39 2.5 2.5 0 00-1-1 2.85 2.85 0 00-1.4-.34h-1.77v5.4h1.86a2.72 2.72 0 001.42-.34z"/></svg>