<svg xmlns="http://www.w3.org/2000/svg" viewBox="0 0 128 40.76"><defs><style>.ice-fill{fill:#f4fbfe}</style></defs><path class="ice-fill" d="M50.12 3a3 3 0 00-1.29-.31 2.83 2.83 0 00-1.42.31A2.68 2.68 0 0046 5.42a2.71 2.71 0 00.37 1.4 2.68 2.68 0 001 1 2.79 2.79 0 001.42.37 3.11 3.11 0 001.26-.28 3.93 3.93 0 001.14-.76l1.23 1.26a5.52 5.52 0 01-1.74 1.15 5 5 0 01-2 .43 5.15 5.15 0 01-2.47-.59 4.48 4.48 0 01-1.74-1.64 4.35 4.35 0 01-.63-2.32 4.21 4.21 0 01.65-2.29 4.49 4.49 0 011.77-1.62 5.29 5.29 0 012.5-.59 5.2 5.2 0 012 .4 5 5 0 011.66 1.07l-1.19 1.42A3.4 3.4 0 0050.12 3zm11.55-1.46a4.54 4.54 0 011.79 1.62 4.22 4.22 0 01.65 2.3 4.25 4.25 0 01-.65 2.31 4.58 4.58 0 01-1.79 1.63 5.63 5.63 0 01-5 0 4.61 4.61 0 01-1.79-1.63 4.25 4.25 0 01-.65-2.31 4.22 4.22 0 01.65-2.3 4.55 4.55 0 011.78-1.62 5.68 5.68 0 015 0zM57.75 3a2.77 2.77 0 00-1 1 2.66 2.66 0 00-.38 1.4 2.66 2.66 0 00.39 1.42 2.86 2.86 0 001 1A2.79 2.79 0 0062 5.46a2.72 2.72 0 00-.37-1.4 2.77 2.77 0 00-2.42-1.38 2.88 2.88 0 00-1.46.32zm9.05-1.91h2.32L72 6.47l2.85-5.39h2.31v8.78h-1.88V3.93L72.65 9h-1.34l-2.64-5v5.86H66.8zm20.62.79a2.77 2.77 0 011 2.25 3 3 0 01-1 2.37 4 4 0 01-2.72.85h-1.84v2.51h-2.08V1.09h3.92a4.18 4.18 0 012.72.79zm-1.48 3.43a1.36 1.36 0 00.46-1.12 1.31 1.31 0 00-.46-1.1 2.14 2.14 0 00-1.35-.37h-1.73v3h1.73a2.09 2.09 0 001.35-.41zm16.32 4.55l-.73-1.7h-4.27l-.73 1.7h-2.14l4-8.77h2.15l3.94 8.77zm-4.31-3.3h2.92l-1.46-3.41zm15.47-5.47h2v8.77h-1.9L109 4.22v5.64h-2V1.09h1.9l4.48 5.66zm12.03.55a4.16 4.16 0 011.72 1.55 4.26 4.26 0 01.61 2.28 4.13 4.13 0 01-.63 2.27 4.2 4.2 0 01-1.74 1.55 5.69 5.69 0 01-2.56.56H119V1.09h3.91a5.56 5.56 0 012.54.55zm-1.09 6.2a2.44 2.44 0 001-1 2.82 2.82 0 00.34-1.4 2.75 2.75 0 00-.37-1.42 2.52 2.52 0 00-1-1 2.85 2.85 0 00-1.42-.35h-1.79v5.52H123a2.73 2.73 0 001.35-.35z"/><path d="M91.65 19.45L86 34.15l-5.66-14.7c-1.7-4.37-5.82-4.37-9.42-4.37l9.56 24.86a2.76 2.76 0 002.26 1.63h6.52a2.76 2.76 0 002.26-1.63l9.56-24.86c-3.6 0-7.72 0-9.43 4.37z" fill="#ed3291"/><path class="ice-fill" d="M40.72 23.23c-.37-4.57-3.86-8.15-8.12-8.15H11a2 2 0 01-2-2v-1.26a2 2 0 012-2h26.5c0-5-3.65-9-8.15-9H8.15C3.9.82.41 4.4 0 9v11a4.09 4.09 0 004.08 4h25.67a2 2 0 012 2v4.48a2 2 0 01-2 2H0c0 5 3.65 9 8.15 9h24.46c4.25 0 7.74-3.58 8.12-8.15v-10.1z"/><path d="M65.21 15.08H44a6.52 6.52 0 006.52 6.52h10.6a1.63 1.63 0 011.63 1.63v.41a1.63 1.63 0 01-1.63 1.63H50.54A6.52 6.52 0 0044 31.79v5.71a4.09 4.09 0 004.08 4.08h17.13a4.09 4.09 0 004.08-4.08V19.16a4.09 4.09 0 00-4.08-4.08zm-13 20a1.63 1.63 0 010-3.26h9a1.63 1.63 0 110 3.26z" fill="#46a7de"/><path d="M110.88 31.38h10.6a6.52 6.52 0 006.52-6.52v-5.7a4.09 4.09 0 00-4.08-4.08h-17.11a4.09 4.09 0 00-4.08 4.08V37.5a4.09 4.09 0 004.08 4.08H128a6.52 6.52 0 00-6.52-6.52h-10.6a1.63 1.63 0 01-1.63-1.63V33a1.63 1.63 0 011.63-1.62zm9-9.78a1.63 1.63 0 010 3.26h-9a1.63 1.63 0 110-3.26z" fill="#fad71c"/></svg>