<svg xmlns="http://www.w3.org/2000/svg" viewBox="0 0 200 100"><path fill="none" d="M0 2.5h200v95H0z"/><path d="M48.2 63.75a1.59 1.59 0 011.59 1.59v15.51a1.65 1.65 0 01-1.65 1.65 1.65 1.65 0 01-1.24-.56L35.46 69.06v13.32h-3.2V65.64a1.9 1.9 0 011.9-1.9 1.9 1.9 0 011.42.64l11 12.39V65.33a1.59 1.59 0 011.59-1.59m20.61 1.59a1.44 1.44 0 00-1.44-1.44H57.19a1.52 1.52 0 00-1.52 1.51v15.47a1.51 1.51 0 001.52 1.51h10.94v-2.91h-9.25v-5h7.42A1.44 1.44 0 0067.74 73a1.44 1.44 0 00-1.44-1.44h-7.42v-4.79h8.48a1.44 1.44 0 001.44-1.44M88 73.17a6.11 6.11 0 01-6.12 6.37 6.19 6.19 0 01-6.17-6.43 6.13 6.13 0 016.12-6.4A6.21 6.21 0 0188 73.12v.05m-15.63 0a9.49 9.49 0 0019-.05 9.49 9.49 0 00-19 0v.05m57.38 0a6.11 6.11 0 01-6.12 6.37 6.19 6.19 0 01-6.17-6.43 6.13 6.13 0 016.12-6.4 6.21 6.21 0 016.17 6.45v.05m-15.63 0a9.49 9.49 0 0019-.05 9.49 9.49 0 00-19 0v.05m-10-9.31h-6.65A1.52 1.52 0 0096 65.38v17h3.21V66.77h4.61a3.33 3.33 0 013.33 3.33v.07a3.33 3.33 0 01-3.33 3.33H102a1.44 1.44 0 00-1.44 1.44 1.44 1.44 0 001.44 1.47h2.11a6.21 6.21 0 006.22-6.21v-.12a6.21 6.21 0 00-6.22-6.21m32.11 16a12.27 12.27 0 007.48 2.61c3.83 0 6.52-2 6.52-5.45V77c0-3-2-4.4-5.84-5.34-3.52-.83-4.35-1.46-4.35-2.87v-.05c0-1.2 1.1-2.16 3-2.16a7.6 7.6 0 014.2 1.38 1.55 1.55 0 00.83.23 1.49 1.49 0 001.51-1.48 1.45 1.45 0 00-.7-1.28 10 10 0 00-5.87-1.69c-3.62 0-6.23 2.16-6.23 5.29v.05c0 3.36 2.19 4.5 6.07 5.44 3.39.78 4.12 1.48 4.12 2.79v.05c0 1.36-1.25 2.29-3.23 2.29a8.66 8.66 0 01-5.73-2.19c-.34.45-1.28 1.71-1.83 2.42m30.1-16h-12.39a1.44 1.44 0 00-1.44 1.44 1.44 1.44 0 001.44 1.44h4.61v15.62h3.21V66.77h4.61a1.44 1.44 0 001.44-1.44 1.44 1.44 0 00-1.44-1.44m-39.81-9.81a2.78 2.78 0 001.37.4 1.73 1.73 0 001.79-1.66V17.66h-3.54V49.8s-52-31.44-53-32a2 2 0 00-1-.28 1.79 1.79 0 00-1.76 1.86v33.45a1.73 1.73 0 001.79 1.66 2.78 2.78 0 001.37-.4c.52-.3 7.87-4.73 20.69-12.48a1.71 1.71 0 00.58-2.36 1.72 1.72 0 00-2.36-.58L73.87 49.8V22.27s51.18 31 52.63 31.81"/></svg>