<svg xmlns="http://www.w3.org/2000/svg" viewBox="0 0 200 100"><path fill="none" d="M0 2.5h200v95H0z"/><path d="M37.21 77.33h-1.07v-9.18h2.41a6.9 6.9 0 011 .07 4.2 4.2 0 01.84.21 2.42 2.42 0 011.18.88 2.49 2.49 0 01.4 1.44 2.73 2.73 0 01-.25 1.25 2.37 2.37 0 01-.76.89 3.61 3.61 0 01-1.22.54 6.69 6.69 0 01-1.63.18h-.9zm0-4.79h.89a5.7 5.7 0 001.28-.12 2.42 2.42 0 00.86-.36 1.4 1.4 0 00.48-.58 1.91 1.91 0 00.15-.77 1.48 1.48 0 00-.24-.88 1.51 1.51 0 00-.69-.52 2.71 2.71 0 00-.64-.15 6.94 6.94 0 00-.85 0h-1.24zm7.6.99v3.8h-1.06v-9.18H46a9.19 9.19 0 011 0 4.25 4.25 0 01.73.14 2.58 2.58 0 011.39.89 2.5 2.5 0 01.48 1.57 2.74 2.74 0 01-.17 1 2.28 2.28 0 01-.48.76 2.5 2.5 0 01-.73.53 3.69 3.69 0 01-.95.3l2.58 3.92h-1.08l-2.68-3.8zm0-4.37v3.36h1.83a2.8 2.8 0 00.62-.12 1.68 1.68 0 00.85-.57 1.64 1.64 0 00.3-1 1.43 1.43 0 00-1.01-1.53 2.93 2.93 0 00-.56-.11h-.83zm6.82 8.17v-9.18h1.07v9.18zm7.75-4.06q.8 1.21 1.58 2.5-.09-1.34-.09-2.73v-4.89H62v9.18h-1.08l-3.42-5.12q-.88-1.34-1.58-2.5Q56 71 56 72.64v4.68h-1.09v-9.17H56zm7.93 4.06h-1.06v-8.17h-2.91v-1h6.88v1h-2.91zm4.28 0v-9.18h1.06v9.18zm7.74-4.06q.8 1.21 1.58 2.5-.08-1.34-.08-2.73v-4.89h1.07v9.18h-1.02l-3.42-5.12q-.89-1.34-1.58-2.5.09 1.25.08 2.93v4.68h-1.1v-9.17h1.05zm10.51.35h-2v-1h3V77a2.19 2.19 0 01-.4.15l-.6.15c-.23 0-.47.08-.73.11a7.28 7.28 0 01-.76 0 5.58 5.58 0 01-2-.32 3.9 3.9 0 01-1.35-.82 3.86 3.86 0 01-.88-1.43 5.59 5.59 0 01-.3-1.88 6.05 6.05 0 01.33-2 4.36 4.36 0 01.95-1.57 4.2 4.2 0 011.5-1 5.19 5.19 0 011.94-.39h.57l.55.07.48.11a2.34 2.34 0 01.37.13v1a5.87 5.87 0 00-.9-.23 5.61 5.61 0 00-1-.09 4.25 4.25 0 00-1.42.24 3.33 3.33 0 00-1.19.72 3.47 3.47 0 00-.82 1.2 4.35 4.35 0 00-.31 1.7 4.77 4.77 0 00.25 1.65 3 3 0 00.72 1.15 2.85 2.85 0 001.13.67 4.74 4.74 0 001.47.22 6.68 6.68 0 00.74 0 4.65 4.65 0 00.65-.12zm6.72-3.04a1.22 1.22 0 00.57 1.11 2.46 2.46 0 00.61.28l.72.21 1 .29a3.08 3.08 0 01.87.44 2.09 2.09 0 01.62.72 2.42 2.42 0 01.24 1.14 2.74 2.74 0 01-.26 1.23 2.31 2.31 0 01-.71.85 3.11 3.11 0 01-1.07.49 5.39 5.39 0 01-1.35.16 5.72 5.72 0 01-.69 0 6.58 6.58 0 01-.68-.12 5 5 0 01-.58-.17 2 2 0 01-.41-.19V76a4 4 0 00.53.22 5.84 5.84 0 00.61.18q.31.07.63.11a4.72 4.72 0 00.6 0 4.47 4.47 0 00.87-.08 2.18 2.18 0 00.73-.27 1.38 1.38 0 00.49-.52 1.72 1.72 0 00.18-.83 1.31 1.31 0 00-.16-.68 1.35 1.35 0 00-.43-.44 2.46 2.46 0 00-.61-.28l-.73-.21q-.51-.12-1-.28a3 3 0 01-.87-.43 2 2 0 01-.61-.71 2.33 2.33 0 01-.23-1.11 2.75 2.75 0 01.24-1.2 2.33 2.33 0 01.66-.83 2.77 2.77 0 011-.49 4.11 4.11 0 011.11-.15 5.74 5.74 0 011.3.14 6 6 0 011.1.37v1a7.32 7.32 0 00-1.12-.39A5.05 5.05 0 0098.5 69a2.9 2.9 0 00-.86.11 1.66 1.66 0 00-.61.32 1.29 1.29 0 00-.36.51 1.79 1.79 0 00-.11.64zM110 72.74a7.83 7.83 0 01-.22 1.92 4.91 4.91 0 01-.63 1.5 3.12 3.12 0 01-1 1 2.43 2.43 0 01-1.3.35 2.52 2.52 0 01-1.33-.35 3.06 3.06 0 01-1-1 5 5 0 01-.62-1.5 8 8 0 01-.22-1.92 7.8 7.8 0 01.22-1.92 5.06 5.06 0 01.63-1.51 3.1 3.1 0 011-1 2.47 2.47 0 011.3-.35 2.51 2.51 0 011.32.35 3 3 0 011 1 4.88 4.88 0 01.62 1.51 7.94 7.94 0 01.23 1.92zm-.82 0a6.61 6.61 0 00-.18-1.63 3.82 3.82 0 00-.49-1.18 2.21 2.21 0 00-.74-.72 1.85 1.85 0 00-1.83 0 2.2 2.2 0 00-.74.72 3.82 3.82 0 00-.49 1.18 6.69 6.69 0 00-.18 1.63 6.51 6.51 0 00.18 1.63 3.89 3.89 0 00.5 1.18 2.17 2.17 0 00.74.71 1.86 1.86 0 00.92.24 1.82 1.82 0 00.91-.24 2.2 2.2 0 00.74-.71 3.82 3.82 0 00.49-1.18 6.57 6.57 0 00.17-1.63zm4.69-4.59v8.17h4.25v1h-5.31v-9.17zm9.24 8.35a2.82 2.82 0 00.84-.12 2.07 2.07 0 00.64-.33 2 2 0 00.46-.51 2.57 2.57 0 00.28-.66 2.78 2.78 0 00.09-.5v-6.23h1.06v5.67a6.69 6.69 0 010 .67 4.74 4.74 0 01-.1.65 3.56 3.56 0 01-.37.94 2.63 2.63 0 01-.64.75 3 3 0 01-1 .49 4.87 4.87 0 01-2.56 0 3 3 0 01-.93-.46 2.52 2.52 0 01-.64-.69 3.51 3.51 0 01-.38-.87 4.36 4.36 0 01-.14-.73 7.24 7.24 0 010-.76v-5.66h1.06v5.69a4.83 4.83 0 000 .63 3 3 0 00.13.59 2.09 2.09 0 00.76 1 2.34 2.34 0 001.44.44zm8.7.83h-1.06v-8.17h-2.91v-1h6.88v1h-2.91zm4.28 0v-9.18h1.06v9.18zm10.09-4.59a7.81 7.81 0 01-.22 1.92 5 5 0 01-.63 1.5 3.13 3.13 0 01-1 1 2.44 2.44 0 01-1.3.35 2.52 2.52 0 01-1.33-.35 3.07 3.07 0 01-1-1 5 5 0 01-.62-1.5 8 8 0 01-.22-1.92 7.8 7.8 0 01.22-1.92 5 5 0 01.63-1.51 3.08 3.08 0 011-1A2.47 2.47 0 01143 68a2.5 2.5 0 011.32.35 3 3 0 011 1 4.94 4.94 0 01.62 1.51 8.08 8.08 0 01.24 1.88zm-.82 0a6.69 6.69 0 00-.18-1.63 3.86 3.86 0 00-.49-1.18 2.2 2.2 0 00-.74-.72 1.85 1.85 0 00-1.83 0 2.19 2.19 0 00-.74.72 3.75 3.75 0 00-.49 1.18 7.46 7.46 0 000 3.26 3.91 3.91 0 00.5 1.18 2.18 2.18 0 00.74.71 1.86 1.86 0 00.92.24 1.82 1.82 0 00.91-.24 2.22 2.22 0 00.74-.71 3.86 3.86 0 00.49-1.18 6.66 6.66 0 00.17-1.63zm8.21.53q.8 1.21 1.58 2.5-.08-1.34-.09-2.73v-4.89h1.07v9.18h-1.06l-3.42-5.12q-.88-1.34-1.58-2.5.08 1.25.08 2.93v4.68h-1.05v-9.17h1.05zm5.65-2.69a1.3 1.3 0 00.16.67 1.31 1.31 0 00.42.44 2.47 2.47 0 00.61.28l.72.21 1 .29a3.07 3.07 0 01.87.44 2.08 2.08 0 01.62.72 2.44 2.44 0 01.24 1.14 2.75 2.75 0 01-.26 1.23 2.32 2.32 0 01-.71.85 3.12 3.12 0 01-1.07.49 5.4 5.4 0 01-1.35.16 5.74 5.74 0 01-.69 0 6.43 6.43 0 01-.68-.12 4.82 4.82 0 01-.58-.17 2.11 2.11 0 01-.41-.19V76a4.07 4.07 0 00.53.22 5.84 5.84 0 00.6.18c.21 0 .42.08.63.11a4.72 4.72 0 00.6 0 4.49 4.49 0 00.87-.08 2.19 2.19 0 00.72-.27 1.38 1.38 0 00.5-.52 1.73 1.73 0 00.18-.83 1.31 1.31 0 00-.16-.68 1.34 1.34 0 00-.43-.44 2.44 2.44 0 00-.61-.28l-.73-.21q-.51-.12-1-.28a3 3 0 01-.87-.43 2.06 2.06 0 01-.61-.71 2.34 2.34 0 01-.23-1.11 2.77 2.77 0 01.24-1.2 2.36 2.36 0 01.66-.83 2.78 2.78 0 011-.49 4.12 4.12 0 011.15-.16 5.72 5.72 0 011.3.14 5.93 5.93 0 011.1.37v1a7.31 7.31 0 00-1.12-.39 5 5 0 00-1.23-.16 2.9 2.9 0 00-.86.11 1.65 1.65 0 00-.61.32 1.29 1.29 0 00-.36.51 1.79 1.79 0 00-.15.69zm2.17-17.52V28.28h4.24v-4.39H140.5v4.39h5.62v24.78h-5.21v4.39h25.13v-4.39h-4.65zm-28.59.04l-16.22-17.48L128 28.25h6.84v-4.39h-21.07v4.39h3.6l-13.29 9.49v-9.49h4.07v-4.39H84.18v4.39h4.63V53.1h-4.1v4.31h23.97V53.1h-4.6v-9.43l2.46-1.58 10 11.01h-2.15v4.31h23.7V53.1h-5.29zM64.86 22.5h-14A16.86 16.86 0 0034 39.36V42a16.86 16.86 0 0016.81 16.85h14A16.86 16.86 0 0081.72 42v-2.64A16.86 16.86 0 0064.86 22.5zm1.23 22.92a8.25 8.25 0 01-16.51 0v-9.49a8.25 8.25 0 0116.51 0z"/></svg>