<svg data-name="order-history" xmlns="http://www.w3.org/2000/svg" viewBox="0 0 128 128"><path d="M100 64H28a4 4 0 010-8h72a4 4 0 010 8zm-8 16H36a4 4 0 010-8h56a4 4 0 010 8zm0 16H36a4 4 0 010-8h56a4 4 0 010 8z"/><path d="M128 35.92a3.36 3.36 0 00-.06-.63v-.14a4.75 4.75 0 00-.2-.64l-.08-.17a2.14 2.14 0 00-.1-.22l-17-32A4 4 0 00107 0H21a4 4 0 00-3.53 2.12l-17 32-.1.22-.08.17a4.75 4.75 0 00-.2.64v.14a3.18 3.18 0 00-.06.62L0 36v86a6 6 0 006 6h116a6 6 0 006-6V35.92zM117.35 32H72V8h32.6zM23.4 8H56v24H10.65zM120 120H8V40h112z"/></svg>