<svg data-name="order-return" xmlns="http://www.w3.org/2000/svg" viewBox="0 0 128 128"><path d="M41.19 47.55a14.71 14.71 0 1014.67 14.71 14.71 14.71 0 00-14.67-14.71zm0 22.49A7.78 7.78 0 0138 55.17v-1.78a1.24 1.24 0 011.9-1l3.87 2.42a1.23 1.23 0 01.58 1.05 1.25 1.25 0 01-.58 1l-3.87 2.42a1.28 1.28 0 01-.66.18 1.3 1.3 0 01-.6-.15 1.25 1.25 0 01-.64-1.08v-.18a5.29 5.29 0 108.46 4.21 1.24 1.24 0 012.48 0A7.78 7.78 0 0141.19 70z"/><path d="M128 67.88c0-1.06-.34-2.27-1.58-6.06-.93-3.07-1.94-6.12-3-9.28-.52-1.55-1.06-3.15-1.61-4.82v-.05l-.28-.88c-2.54-7.86-5.66-17.53-15.94-18.7h-.26l-.78-.07H86.29a14.17 14.17 0 00-1.6.1l-.33.05c-.43.06-.85.14-1.26.23l-.25.07a12 12 0 00-1.33.41h-.11a14.7 14.7 0 00-1.41.62V24a12 12 0 00-12-12H12A12 12 0 000 24v72a4 4 0 004 4h11.9a16.1 16.1 0 0032.2 0H80a16 16 0 0032 0h4a12 12 0 0012-12V67.88zm-84.74-35h13.27l5.2 9.82H43.26zm-19.79 0h13.27v9.82H18.27zM32 108.05a8.1 8.1 0 118.1-8.1 8.11 8.11 0 01-8.1 8.1zm30.81-29.44H17.19v-32.7h45.62zM96 108a8 8 0 118-8 8 8 0 01-8 8zM80 64V42.62A6.49 6.49 0 0186.29 36h17.14c5.55 0 7.34 3.78 10.38 13.07l.39 1.19c.56 1.69 1.1 3.3 1.63 4.87 1.06 3.14 2 6 2.9 8.87z"/></svg>