<svg xmlns="http://www.w3.org/2000/svg" viewBox="0 0 200 100"><path fill="none" d="M0 2.5h200v95H0z"/><path d="M50 51.53c0-4.72-.57-8.46-9.93-8.46-7.82 0-10.43 2.81-10.37 7.44h7a2.88 2.88 0 012.88-2.45c.83 0 2.57.19 2.57 1.62 0 4.3-13.52.33-13.52 9.48 0 4.12 4.27 5.79 6.5 5.73 2.94-.07 5.21-.6 7.44-2.68l.86 2.11h6.94C50 63.57 50 51.53 50 51.53zm-11.47 8.84a2 2 0 01-2.2-2c0-1.68 3.49-1.62 6.06-2.87.19 2.72-1.1 4.9-3.86 4.9zM188.68 56c-.23 1.55-1 3.47-3.06 3.47-2.47 0-3.82-2.41-3.82-5.39 0-2.34.88-5.48 3.82-5.48a2.64 2.64 0 012 .79 3 3 0 01.83 2H196c-.57-5.85-5.14-8.12-10.42-8.12-6.53 0-11.37 3.89-11.37 10.65s5 10.8 11.37 10.8c5.48 0 9.89-2.75 10.57-8.76h-7.51zm-22.84 8.34h7.58V44.01h-7.58v20.33zm0-23.44h7.58v-5.2h-7.58v5.2zm-35.67 2.22c-6.68 0-11.28 4-11.28 10.88s5 10.77 11.32 10.77 11.33-3.9 11.33-11.16c0-6.16-4.38-10.5-11.37-10.5zm0 16.37c-2 0-3.55-2.15-3.55-5.89 0-2.23.95-5 3.63-5 2-.11 3.48 2.23 3.48 5.14 0 3.74-1.44 5.73-3.56 5.73zm-25.03-10.55c0-1 1.09-1.44 2.45-1.44a3.37 3.37 0 011.87.49 2.49 2.49 0 01.75 1.43h7.14c-.19-5.28-5.37-6.38-10-6.38-4.12 0-9.46 1.63-9.46 6.69 0 8.3 12.69 5.27 12.69 8.44 0 1.4-1 1.92-2.92 1.92a3.8 3.8 0 01-2.06-.89 2.26 2.26 0 01-.83-1.81H97.7c.14 5.54 5.19 7.61 9.73 7.61 8.4 0 10.83-3.65 10.86-7.77.06-7.94-13.19-5.44-13.14-8.29zm-8.6 2.59c0-4.72-.57-8.46-9.93-8.46-7.82 0-10.43 2.81-10.37 7.44h7a2.88 2.88 0 012.89-2.45c.83 0 2.57.19 2.57 1.62 0 4.3-13.53.33-13.53 9.48 0 4.12 4.27 5.79 6.5 5.73 2.94-.07 5.21-.6 7.44-2.68l.89 2.11h6.9c-.33-.76-.36-12.79-.36-12.79zm-11.49 8.84a2 2 0 01-2.2-2c0-1.68 3.49-1.62 6.06-2.87.19 2.72-1.1 4.9-3.86 4.9zM17.28 35H3.81v29.32h8.7v-9.1h5.07c7.82 0 11.63-4.2 11.63-10.05C29.21 39.58 25.1 35 17.28 35zm-.4 13.78h-4.37v-6.62h3.2c1.89 0 4.76.51 4.76 3a3.32 3.32 0 01-3.59 3.57zm139.93-5.66c-3 0-4.24.5-7 3v-2.25h-7.19v20.47h7.19V53.6c0-2.53 1.3-4.08 3.72-4.08 2.23 0 2.76 1.17 2.76 3.13v11.69h7.85V51.83c0-5.44-2.12-8.71-7.33-8.71zm-90.28 0c-3 0-4.24.5-7 3v-2.25h-7.19v20.47h7.58V53.6c0-2.53 1-4.36 3.42-4.36 2.23 0 2.67 1.45 2.67 3.42v11.68h7.86V51.83c0-5.44-2.12-8.71-7.33-8.71z"/></svg>