<svg id="Layer_1" data-name="Layer 1" xmlns="http://www.w3.org/2000/svg" viewBox="0 0 280 277.15"><defs><style>.cls-1{fill:#009ade}.cls-2{fill:#002f87}</style></defs><path class="cls-1" d="M198.94 214h-21.78a3 3 0 00-3 2.55l-8.81 55.85a1.82 1.82 0 001.8 2.1h11.17a2.12 2.12 0 002.09-1.79l2.5-15.83a3 3 0 013-2.56h6.89c14.35 0 22.63-6.94 24.79-20.7 1-6 0-10.75-2.78-14.06-3.09-3.68-8.58-5.56-15.87-5.56zm2.51 20.4c-1.19 7.81-7.16 7.81-12.93 7.81h-3.29l2.31-14.59a1.82 1.82 0 011.79-1.53h1.51c3.93 0 7.64 0 9.55 2.24 1.15 1.3 1.5 3.28 1.06 6.03z" transform="translate(-10 -11.43)"/><path class="cls-2" d="M43.6 214H21.82a3 3 0 00-3 2.55L10 272.36a1.82 1.82 0 001.8 2.1h10.4a3 3 0 003-2.55l2.38-15.07a3 3 0 013-2.56h6.89c14.35 0 22.63-6.94 24.79-20.7 1-6 0-10.75-2.78-14.06-3.11-3.64-8.59-5.52-15.88-5.52zm2.51 20.4c-1.19 7.81-7.16 7.81-12.93 7.81h-3.29l2.3-14.59a1.82 1.82 0 011.8-1.53h1.5c3.94 0 7.65 0 9.56 2.24 1.15 1.3 1.5 3.28 1.06 6.03zm62.59-.29H98.27a1.82 1.82 0 00-1.8 1.53l-.47 2.92-.73-1.06C93 234.22 88 233.13 83 233.13c-11.52 0-21.37 8.73-23.28 21-1 6.11.42 12 3.88 16 3.18 3.74 7.72 5.3 13.14 5.3a20 20 0 0014.43-6l-.46 2.9a1.81 1.81 0 001.79 2.1h9.39a3 3 0 003-2.55l5.64-35.71a1.81 1.81 0 00-1.83-2.06zm-14.54 20.3a11.64 11.64 0 01-11.77 10 8.09 8.09 0 01-8.64-10.15 11.68 11.68 0 0111.69-10 8.77 8.77 0 017 2.84 9 9 0 011.72 7.31z" transform="translate(-10 -11.43)"/><path class="cls-1" d="M264 234.11h-10.39a1.81 1.81 0 00-1.79 1.53l-.46 2.92-.73-1.06c-2.26-3.28-7.29-4.37-12.32-4.37-11.52 0-21.37 8.73-23.28 21-1 6.11.42 12 3.88 16 3.18 3.74 7.73 5.3 13.14 5.3a20 20 0 0014.43-6l-.46 2.9a1.81 1.81 0 001.79 2.1h9.39a3 3 0 003-2.55l5.64-35.71a1.81 1.81 0 00-1.84-2.06zm-14.54 20.3a11.62 11.62 0 01-11.77 10 8.82 8.82 0 01-7-2.82 8.91 8.91 0 01-1.64-7.33 11.68 11.68 0 0111.69-10 8.81 8.81 0 017 2.84 9 9 0 011.76 7.31z" transform="translate(-10 -11.43)"/><path class="cls-2" d="M164.24 234.11h-10.48a3 3 0 00-2.5 1.32l-14.46 21.3-6.13-20.46a3 3 0 00-2.9-2.16h-10.31a1.81 1.81 0 00-1.71 2.4l11.54 33.88-10.86 15.32a1.81 1.81 0 001.48 2.86h10.48a3 3 0 002.48-1.3L165.73 237a1.81 1.81 0 00-1.49-2.89z" transform="translate(-10 -11.43)"/><path class="cls-1" d="M276.33 215.49l-8.94 56.87a1.82 1.82 0 001.79 2.1h9a3 3 0 003-2.55l8.82-55.85a1.82 1.82 0 00-1.8-2.1h-10.08a1.82 1.82 0 00-1.79 1.53zM217.91 57.34c2.2-14.06 0-23.62-7.62-32.29-8.37-9.54-23.49-13.62-42.84-13.62h-56.17a8 8 0 00-7.94 6.78L80 166.51a4.83 4.83 0 004.76 5.58h34.67L117 187.26a4.22 4.22 0 004.17 4.88h29.22a7 7 0 006.94-5.94l.29-1.48 5.51-34.92.35-1.92a7 7 0 017-5.94h4.37c28.31 0 50.48-11.5 57-44.77 2.71-13.9 1.31-25.5-5.85-33.66a27.8 27.8 0 00-8-6.17" transform="translate(-10 -11.43)"/><path d="M217.91 57.34c2.2-14.06 0-23.62-7.62-32.29-8.37-9.54-23.49-13.62-42.84-13.62h-56.17a8 8 0 00-7.94 6.78L80 166.51a4.83 4.83 0 004.76 5.58h34.67l8.71-55.23-.27 1.73a8 8 0 017.91-6.79h16.48c32.37 0 57.71-13.14 65.11-51.17.22-1.13.41-2.22.58-3.29" transform="translate(-10 -11.43)" fill="#002169"/><path class="cls-2" d="M137.46 57.53a7 7 0 016.94-5.94h44a91.28 91.28 0 0114.6 1.06c1.27.2 2.51.44 3.71.7a51.09 51.09 0 015.16 1.42 39.49 39.49 0 016.09 2.57c2.2-14.06 0-23.62-7.62-32.29-8.37-9.54-23.49-13.62-42.84-13.62h-56.22a8 8 0 00-7.94 6.78L80 166.51a4.83 4.83 0 004.76 5.58h34.67l8.71-55.23z" transform="translate(-10 -11.43)"/></svg>