<svg xmlns="http://www.w3.org/2000/svg" viewBox="0 0 128 128"><path d="M0 71.7a11.54 11.54 0 00.6 2.8 14.58 14.58 0 006 7.79 14.63 14.63 0 008.59 2.19 29.46 29.46 0 001.79 6 40.37 40.37 0 0013.18 16.78V122a3.16 3.16 0 003.2 3.2h13a3.16 3.16 0 003.19-3.2v-6c2.2.6 4.6 1 6.79 1.4a64.27 64.27 0 0012.38.6 81.23 81.23 0 0012.18-2v6a3.16 3.16 0 003.2 3.2h13a3.15 3.15 0 003.19-3.2v-15.15c1.2-1 2.4-2 3.6-3.2a37.86 37.86 0 009.58-14.18h11.33a3.15 3.15 0 003.2-3.19V69.71a3.16 3.16 0 00-3.2-3.2h-11.18a30 30 0 00-1.6-3.79 35.61 35.61 0 00-8.78-11.59l.2-21.16L86.66 41a9.51 9.51 0 00-2.19-.8 55.83 55.83 0 00-18.17-3 62.62 62.62 0 00-18.18 2.39 55.5 55.5 0 00-16.57 8 41.78 41.78 0 00-12.38 13.33 32.36 32.36 0 00-4.39 17.17 8 8 0 01-4.8-1.4 8.52 8.52 0 01-2.79-3.19 6 6 0 01-.8-2 7.46 7.46 0 01-.2-2.19 2.65 2.65 0 00-2.6-2.6 2.86 2.86 0 00-3.19 2c-.4.8-.2 1.79-.4 2.99zm76.08-19.77c-.8-.2-1.6-.2-2.2-.4a57.94 57.94 0 00-18.57.6 46.76 46.76 0 00-8.58 2.6 8.36 8.36 0 00-2 .8 8.51 8.51 0 01-2.2.4 3.26 3.26 0 01-2.59-2.2 3.09 3.09 0 01.8-3.19 2.73 2.73 0 011.59-1 20.75 20.75 0 012-.8 61 61 0 018.59-2.6 57.84 57.84 0 0118.57-1.2c1.4.2 3 .4 4.59.6a7.62 7.62 0 012 .6 2.33 2.33 0 011.2 1.2 3.4 3.4 0 01-.2 3.39 3.23 3.23 0 01-3 1.2c-11.18-1.99 1.6.2 0 0zm-3.99-20.76c.4-.6.8-1.4 1.2-2A18.56 18.56 0 0061.5 3.41a18.86 18.86 0 00-15 2.4 18.55 18.55 0 00-2.8 28.55A69.58 69.58 0 0165.3 31c2.19 0 4.59 0 6.79.17z"/></svg>