<svg xmlns="http://www.w3.org/2000/svg" viewBox="0 0 270 100"><path fill="none" d="M-9.1 2.5h288.2v95H-9.1z"/><path d="M231.27 23.63a30 30 0 1030 30 30 30 0 00-30-30zm0 59.3a29.31 29.31 0 1129.33-29.3 29.31 29.31 0 01-29.33 29.3zM229.65 28c0-.31.17-.5.43-.5h1.19a26.1 26.1 0 11-9.06 1.6.5.5 0 01.34.93 25.2 25.2 0 108.72-1.55h-1.2c-.26 0-.42-.18-.42-.48zm.89 41.58h.73a16 16 0 100-31.92h-.73c-.56 0-.89-.41-.89-1s.33-1.05.89-1.05h.73a18.06 18.06 0 110 36.11h-.73c-.56 0-.89-.42-.89-1s.35-1.14.89-1.14zm.73 4.72a20.68 20.68 0 100-41.35h-.94c-.42 0-.68-.31-.68-.81s.26-.8.68-.8h.94a22.29 22.29 0 110 44.58h-.94c-.42 0-.68-.31-.68-.81s.26-.81.68-.81zm-8.81-2c.39.18.45.58.24 1s-.54.62-.92.44a22.29 22.29 0 010-40.33.7.7 0 011 .43c.21.46.11.85-.27 1a20.68 20.68 0 000 37.41zm0-5.42a1.06 1.06 0 01-1.16 1.74 18.05 18.05 0 010-30.07 1.06 1.06 0 011.16 1.74 16 16 0 000 26.59zm-1.84-5.34a13.29 13.29 0 010-15.9 1.28 1.28 0 012 1.52 10.76 10.76 0 000 12.85 1.28 1.28 0 01-2 1.53z"/><path d="M226.52 44.08a1.4 1.4 0 01-1.85-1.39V29.07c0-.84.62-1.33 1.57-1.33s1.56.49 1.56 1.33v11.38a13.65 13.65 0 113.47 26.84H231c-.83 0-1.33-.62-1.33-1.57s.5-1.57 1.33-1.57h.29a10.53 10.53 0 00.08-21.06 12.51 12.51 0 00-4.85.99zm10.64 3.66a8.25 8.25 0 00-5.88-2.42c-3 0-6.42 1.54-6.6 3V74c0 .94.61 1.38 1.57 1.38S227.8 75 227.8 74V49.6a5 5 0 013.48-1.17 5.2 5.2 0 010 10.39H231c-.82 0-1.32.61-1.32 1.56s.5 1.55 1.32 1.55h.31a8.32 8.32 0 005.88-14.21zm-56.52 13.38a8.56 8.56 0 004.7 1.21c3.87 0 6.19-2 6.19-5.22 0-2.53-1.34-3.84-5-5-2.41-.78-3.42-1.53-3.42-2.71 0-1.49 1.28-2.24 3.13-2.24a8.89 8.89 0 014.7 1.3v-2.29a8.74 8.74 0 00-4.63-1.24c-3.59 0-5.77 1.66-5.77 4.5 0 2.18 1.27 3.71 4.33 4.72s4 1.57 4 3.16-1.36 2.8-3.61 2.8a8.61 8.61 0 01-4.7-1.27zm-14.65-9c.3-3 1.92-4.92 4.82-4.92s4.47 1.63 4.57 4.92zm11.57 6.87a13.08 13.08 0 01-5.41 1.11c-4 0-6.09-1.92-6.26-5.8h12c0-.46.09-1.37.09-1.73 0-4.69-2.38-7.59-7-7.59-5.15 0-7.76 3.78-7.76 8.73 0 5.57 2.94 8.67 8.57 8.67a12.26 12.26 0 005.74-1.17zm-20.34 3L162 45.32h-2.57L156 58.38l-3.84-13.06h-2.87l-3.81 13.23L142 45.32h-2.8l4.8 16.61h2.71l4-13.19 3.81 13.19zm-27-1.88c-3.32 0-5.18-2.54-5.18-6.39s1.86-6.45 5.18-6.45 5.18 2.54 5.18 6.39-1.91 6.39-5.2 6.39zm0 2.28c5.28 0 7.92-3.85 7.92-8.7s-2.28-8.7-7.92-8.7c-5.27 0-7.92 3.85-7.92 8.7s2.27 8.64 7.9 8.64zm-22.73-14.3a8 8 0 014-.88c3.58 0 5.63 2.38 5.63 5.9 0 4.46-2.44 6.94-6.71 6.94a7.62 7.62 0 01-2.87-.46zm-2.6 13.35a16.39 16.39 0 005.24.89c6 0 9.68-3.36 9.68-9.25 0-5.09-3.13-8.15-8.11-8.15a10.39 10.39 0 00-4.21.85v-8.3h-2.61v24zm-16.25 8.93l3.16-8.44 6.61-16.61h-2.87l-5 13.59-5-13.59h-3l6.62 16.61L86 70.37zm-19.5-18.3c.29-3 1.93-4.92 4.83-4.92s4.46 1.63 4.56 4.92zm11.57 6.87a13.08 13.08 0 01-5.41 1.11c-4 0-6.09-1.92-6.25-5.8H81c0-.46.1-1.37.1-1.73 0-4.69-2.38-7.59-7-7.59-5.15 0-7.75 3.78-7.75 8.73 0 5.57 2.93 8.67 8.57 8.67a12.22 12.22 0 005.73-1.17v-2.22zm-17.11 3V51.06c0-4.69-2.83-6.13-6.45-6.13a23.36 23.36 0 00-7.46 1.4v15.6h2.61V48a12.78 12.78 0 014.23-.75c3 0 4.46 1 4.46 4.69v10h2.61zm-16.42-2.28a10 10 0 01-2.94.42c-1.17 0-2.05-.33-2.05-2.48V47.51h4.37v-2.19h-4.37v-4.1h-2.57v4.1h-2.77v2.19h2.77v10.58c0 3 1.56 4.24 4 4.24a9.81 9.81 0 003.55-.59zM32.72 42.2a1.68 1.68 0 001.7-1.69 1.71 1.71 0 10-3.42 0 1.68 1.68 0 001.72 1.69zM34 45.32h-2.6v16.61H34zm-18.1 2.94a6.94 6.94 0 013.94-1c3.59 0 5.64 2.38 5.64 5.9 0 4.46-2.45 6.94-6.75 6.94a7.3 7.3 0 01-2.83-.46V48.26zm0 22.11V62a10.3 10.3 0 002.7.37c5.93 0 9.61-3.36 9.61-9.25 0-5-3.16-8.15-8.11-8.15a10.53 10.53 0 00-6.81 2.41v23z"/></svg>