<svg xmlns="http://www.w3.org/2000/svg" viewBox="0 0 128 128"><path d="M116 0H12A12 12 0 000 12v80a12 12 0 0012 12h66.82l30.77 23.19a4 4 0 002.41.81 4.05 4.05 0 001.79-.42A4 4 0 00116 124v-20a12 12 0 0012-12V12a12 12 0 00-12-12zM64 88a8 8 0 118-8 8 8 0 01-8 8zm14.81-35.94c-2.77 1.76-4.88 2.86-6.42 3.66l-.34.17C72 57.16 72 59 72 61a8 8 0 01-16 0c0-10.47 0-14.8 9-19.48 1.35-.7 3-1.57 5.2-3 1.34-.85 1.83-1.66 1.83-2s-.52-1.33-2-2.3c-2.17-1.45-6.2-1.95-9.8-1.22-2.59.53-4.73 1.66-5.59 3a8 8 0 11-13.36-8.79c3.25-4.95 8.85-8.45 15.77-9.85C65 15.75 73.18 17.1 79 21s9.11 9.6 9 15.73-3.39 11.63-9.19 15.33z"/></svg>