<svg xmlns="http://www.w3.org/2000/svg" viewBox="0 0 200 100"><path fill="none" d="M0 2.5h200v95H0z"/><path d="M99.37 65a.84.84 0 01.84.84v8.23a.88.88 0 01-.88.88.88.88 0 01-.66-.3l-6.05-6.84v7.07h-1.7v-8.82a1 1 0 011-1 1 1 0 01.75.34l5.84 6.6v-6.11a.84.84 0 01.84-.84m9.89.95a.77.77 0 00-.76-.76h-5.4a.8.8 0 00-.8.8v8.16a.8.8 0 00.8.8h5.81v-1.55H104V70.8h3.94a.76.76 0 00.76-.76.76.76 0 00-.76-.76H104v-2.56h4.5a.77.77 0 00.76-.76m6.12-.96a4.93 4.93 0 00-5 5 5 5 0 0010.07 0 4.89 4.89 0 00-5.07-5zm3.25 5a3.24 3.24 0 01-3.25 3.38A3.29 3.29 0 01112.1 70a3.25 3.25 0 013.25-3.4 3.3 3.3 0 013.28 3.4zm16.24-5a4.93 4.93 0 00-5 5 5 5 0 0010.07 0 4.89 4.89 0 00-5.07-5zm3.25 5a3.24 3.24 0 01-3.25 3.38 3.29 3.29 0 01-3.28-3.38 3.25 3.25 0 013.25-3.4 3.3 3.3 0 013.27 3.4zm-12.27-4.83h-3.51a.8.8 0 00-.8.8v9h1.7v-8.25h2.45a1.77 1.77 0 011.77 1.77 1.77 1.77 0 01-1.77 1.77h-1a.76.76 0 00-.69.74.77.77 0 00.77.76h1.12a3.3 3.3 0 003.3-3.3v-.07a3.3 3.3 0 00-3.3-3.3m15.04 8.52a6.51 6.51 0 004 1.39c2 0 3.46-1.08 3.46-2.89 0-1.6-1.05-2.34-3.1-2.83-1.87-.44-2.31-.77-2.31-1.52 0-.64.58-1.15 1.58-1.15a4 4 0 012.23.73.82.82 0 00.44.12.79.79 0 00.8-.79.77.77 0 00-.37-.68 5.33 5.33 0 00-3.07-.9c-1.92 0-3.31 1.15-3.31 2.81 0 1.78 1.16 2.39 3.22 2.89 1.8.41 2.19.79 2.19 1.48 0 .72-.66 1.22-1.71 1.22a4.59 4.59 0 01-3-1.16c-.18.24-.68.91-1 1.29m15.21-8.45h-6.59a.77.77 0 00-.77.76.76.76 0 00.77.76h2.4V75h1.7v-8.28h2.44A.76.76 0 00157 66a.77.77 0 00-.77-.76m-80.6 2.68v-.06a3 3 0 00-3.22-2.76H69a.8.8 0 00-.78.81V75h1.66v-4.29h2.39A1.62 1.62 0 0174 72.19a1.62 1.62 0 01-1.73 1.48h-.93a.7.7 0 00-.75.64.7.7 0 00.75.64h1.09a3 3 0 003.22-2.76v-.06A2.63 2.63 0 0074.48 70a2.63 2.63 0 001.15-2.08zm-5.77-.45V66.4h2.39A1.62 1.62 0 0174 67.88a1.72 1.72 0 01-1.81 1.51h-2.3zm14.73-2.2a.85.85 0 00-1.19.19l-2.85 3.92-2.85-3.92a.85.85 0 00-1.19-.19.85.85 0 00-.19 1.19l3.35 4.62V75h1.7v-3.91l3.35-4.62a.85.85 0 00-.13-1.2zM58.58 55V36.56a1 1 0 00-1-1h-34l15.11-8.44 11 6.14a.82.82 0 001.12-.32l.17-.3a.82.82 0 00-.32-1.12l-11.42-6.37a.81.81 0 00-.19-.08 1 1 0 00-.86.05L19.27 35.69a1 1 0 00-.38.39v19.06a1 1 0 001 1H57.6a1 1 0 001-1 1 1 0 00-.02-.14zm-37.83-3.51H35.2a.79.79 0 00.8-.79v-.42a.79.79 0 00-.79-.79H20.75v-2.65h19.42a.9.9 0 00.89-.89v-.21a.9.9 0 00-.89-.89H20.75V42.2H45a1 1 0 000-2H20.75v-2.65h35.84v16.59H20.75zM93 36v-.19c0-5.27-4.93-9.54-11-9.54H70A1.78 1.78 0 0068.2 28v26.36a1.78 1.78 0 001.8 1.77h3.42V30.74h8c3.26 0 5.9 2.29 5.9 5.11V36a5.34 5.34 0 01-4.61 5 2.36 2.36 0 00-.71 0h-3.77a2.4 2.4 0 00-2.55 2.21 2.4 2.4 0 002.55 2.21h2.58l7.58 9.7a2.37 2.37 0 003.31.41l.37-.29a2.37 2.37 0 00.4-3.24l-5.8-7.42C90.4 43.09 93 39.8 93 36zm23.59-7.36a2.33 2.33 0 00-2.32-2.32H97.86a2.44 2.44 0 00-2.44 2.44v25a2.44 2.44 0 002.44 2.44h17.64v-4.76h-14.91v-8.05h12a2.32 2.32 0 002.32-2.32 2.32 2.32 0 00-2.32-2.32h-12V31h13.68a2.33 2.33 0 002.32-2.32m29.73-2.41a2.53 2.53 0 012.53 2.53v24.7a2.63 2.63 0 01-2.63 2.63 2.63 2.63 0 01-2-.89L126 34.73V56h-5.1V29.29a3 3 0 013-3 3 3 0 012.27 1L143.74 47V28.8a2.53 2.53 0 012.53-2.53h.05m5.57 29.86c.14-.42 2.13-5 2.44-5.75l7.67-18.9.79-2a9.79 9.79 0 011-1.9 3.94 3.94 0 011.37-1.22 4.3 4.3 0 012.09-.47 4.34 4.34 0 012.11.47 4 4 0 011.37 1.2 8.36 8.36 0 01.88 1.58q.36.84.91 2.25l7.82 18.78a9.24 9.24 0 01.92 3.12 2.55 2.55 0 01-.87 1.86 2.9 2.9 0 01-2.09.84 2.78 2.78 0 01-1.3-.19 2.49 2.49 0 01-.86-.68 6.14 6.14 0 01-.75-1.31q-.4-.88-.68-1.56l-1.43-3.65h-12.12L158 56.13zm10.86-12h8.95l-4.51-12z"/></svg>