<svg xmlns="http://www.w3.org/2000/svg" viewBox="0 0 200 100"><path fill="none" d="M0 2.5h200v95H0z"/><path d="M71.86 59.64h-4.32v10h4.31c3.89.06 6.29-1.5 6.29-5s-2.4-5-6.29-5zm.3 8.38h-2.28v-6.7h2.28c3.23-.06 3.71 1.74 3.71 3.35S75.39 68 72.16 68zm16.53-2h2.87v2.1a25.28 25.28 0 01-2.93.24 3.65 3.65 0 110-7.31c1.5 0 2.75.42 2.75 1.68h2.46c-.06-2.4-2.22-3.23-5.57-3.23-2.46 0-5.87 1.2-5.87 5.21s3.23 5.21 5.75 5.21a25.15 25.15 0 002.85-.16 14.5 14.5 0 002.81-.42v-5h-5.13V66zm19.82-6.35H98.38v1.92h4v8.08h2.28v-8.11h3.89v-1.92zm2.63 0h3.17l5 10h-2.4l-1.08-2.1h-6.23l-1 2.1H106l5.09-10zm-.72 6.23H115l-2.28-4.25h-.06l-2.22 4.25zm12.1-6.23h-2.28v10h8.08V68h-5.81v-8.36zm32.93 5.09v-.06c1.56-.24 2.58-1.14 2.58-2.4 0-2-2.16-2.63-4.31-2.63h-5.33v10h2.28v-4h3.23a1.61 1.61 0 011.5 1.32c.12 1 .24 1.86.42 2.69h2.4a5.74 5.74 0 01-.66-2.4c-.24-1.38 0-2.16-2.1-2.51zm-1.86-.76h-2.93v-2.68h2.93c1.2 0 1.86.36 1.86 1.26s-.66 1.42-1.86 1.42zm10.84-4.49c-4.13 0-6 2.22-6 5.21s1.86 5.21 6 5.21 6-2.28 6-5.21-1.92-5.21-6-5.21zm0 8.86a3.65 3.65 0 010-7.31 3.65 3.65 0 010 7.31zm14.73-3.23c0 1.68-.24 3.29-2.87 3.29s-2.87-1.62-2.87-3.29v-5.5h-2.28v6.29c0 2.63 2.1 4.07 5.15 4.07s5.15-1.44 5.15-4.07v-6.29h-2.28v5.45zm7-5.45h-3.83v10h2.28v-3.88h2.34c2.81-.06 4.37-1.26 4.37-3.05 0-2.57-2.34-3.11-5.15-3.11zm-1.56 4.49v-2.86c1.92.06 4.43-.36 4.43 1.44s-2.51 1.32-4.43 1.38zM79.4 69.64h2.28v-10H79.4v10zm15.51 0h2.28v-10h-2.28v10zM142 66h2.81v2.1a23.29 23.29 0 01-2.87.24c-2.4 0-3.83-1.38-3.83-3.65s1.41-3.69 3.81-3.69c1.44 0 2.69.42 2.69 1.68h2.45c0-2.4-2.22-3.23-5.51-3.23-2.51 0-5.93 1.2-5.93 5.21s3.29 5.21 5.75 5.21a24.32 24.32 0 002.87-.12 13.84 13.84 0 002.81-.42v-5H142V66zM8.2 30v26.47h54.32V30H8.2z"/><path d="M61.86 30.6v25.21h-53V30.6h53zM8.2 59.28v10.66h54.32V59.28H8.2z"/><path d="M61.86 59.88v9.4h-53v-9.4h53zm10.83-14.79h8.62c2.34.06 3.83 2.75 4 4.19.36 2.34.66 4.67 1.26 7h5.33c-1.32-1.44-1.56-4.55-1.92-6.23-.54-3.53-.12-5.45-3.53-6.17v-.06c4-.66 4.79-3.47 4.79-6.89 0-5.33-5.39-6.77-11-6.83h-12.7v26.19h5.15v-11.2zm0-11.14h8.68c3.11.06 4.91 1.56 4.91 3.89s-1.8 3.53-4.91 3.59h-8.68V34zm68 19.94a11.58 11.58 0 00.24 2.4h4.25a7.63 7.63 0 01-.3-2v-9.86c0-5.51-4.61-6.83-9.22-6.83a16.78 16.78 0 00-6.71 1.14 4.79 4.79 0 00-3.05 4.55h4.79c-.12-.84 1.5-2.63 4.73-2.63 2.46 0 4.79 1 4.79 2.28v1.68c-2.75-.06-7.78.06-10.54 1-4.13 1.38-4.85 4.43-4.85 5.69 0 3.59 3.17 5.51 7.43 5.51 3.11 0 6.89-.84 8.44-2.93zm-.48-5.57c-.12 3.71-2.69 5-6.47 5-1.92 0-3.83-.24-3.71-2.75 0-1.86 3.59-3.47 10.18-2.81v.54zm12.16-2.93c.12-2.63 4.49-4.55 6.65-4.55 3.35 0 4.07 2.57 4.13 4.55v10.9h4.31v-11.8a10.31 10.31 0 00-.42-2.93c-.84-2.63-5.09-4.37-7.37-4.37a9.11 9.11 0 00-7.25 3.17l-.12-.12v-2.75H148v18.8h4.37v-10.9zm-29.5-15.27h-5.15v26.17h5.15V30.12zm-18.68 7.48c7 .3 11.92 4.13 11.92 9.64 0 5.69-4.43 9.58-11.92 9.58s-12.34-4-11.8-9.58c.84-9.52 11.68-9.64 11.8-9.64zm0 16.17a6.94 6.94 0 006.89-6.53 6.67 6.67 0 00-6.89-6.41 6.64 6.64 0 00-6.77 6.41 6.87 6.87 0 006.77 6.53zm75.51 3.05c3 0 5.87-1 7.37-3.11a9.06 9.06 0 00.6 2.57h4.13c-.12-1.2-.24-2.45-.24-3.65V30.12h-4.37v10.12a9.57 9.57 0 00-6.59-2.69c-7.07 0-10.66 4.79-10.66 9.7a9.3 9.3 0 009.76 9.58zm1.08-16.17c3.71 0 6.41 4.07 6.41 6.59s-2.46 6.23-6.11 6.23a6.41 6.41 0 11-.3-12.81z"/></svg>