<svg xmlns="http://www.w3.org/2000/svg" viewBox="0 0 200 100"><path fill="none" d="M0 2.5h200v95H0z"/><path fill-rule="evenodd" d="M175.91 37.11c-1-6.67-12.91-10.92-30.67-11.93-22.31-1.27-67.16 4.26-96.35 16.58a9.81 9.81 0 012-.2c2.24 0 5.34.55 5.34 4v1.11h-3.91v-1a1.35 1.35 0 00-1.47-1.44 1.31 1.31 0 00-1.45 1.07 2 2 0 000 .83c.45 1.86 6.46 2.84 7.12 6.16a7.89 7.89 0 010 2.59c-.38 2.65-2.73 3.63-5.59 3.63s-5.76-1.06-5.76-4.6v-1.2h4.25v1.52A1.41 1.41 0 0051 55.68a1.37 1.37 0 001.54-1.07 2 2 0 000-1.17c-.82-2-6.44-3-7.13-6.22a5.43 5.43 0 010-2.13 3.66 3.66 0 011.38-2.4c-7.29 3.25-13.49 6.95-17.95 11.09C25.39 57 23.65 60 24.1 62.92c.8 5.19 6.76 8.1 15.39 10 14.16 3.12 38 2.68 62-1.11 18.29-2.89 36.68-7.68 50.69-13.77a9.58 9.58 0 01-1.83.17c-2.8 0-5.3-1-5.56-3.91a9.17 9.17 0 01-.06-1v-6.7c0-.29 0-.78.08-1 .35-3 2.75-3.91 5.56-3.91s5.25.94 5.55 3.91a9.46 9.46 0 010 1v.52h-4v-.88a3.72 3.72 0 000-.61 1.66 1.66 0 00-3.15 0 3.12 3.12 0 00-.07.75v7.24a3.69 3.69 0 000 .6 1.71 1.71 0 003.23 0 3.06 3.06 0 000-.6v-2.3h-1.62V49h5.6v4.24c0 .29 0 .51-.06 1a3.81 3.81 0 01-1.29 2.65A65.69 65.69 0 00169.34 48c4.09-3.47 7.12-7.35 6.57-10.9zm-53.06 5h-4v11.67a2.78 2.78 0 010 .6 1.43 1.43 0 01-1.52 1.15 1.41 1.41 0 01-1.51-1.15 2.48 2.48 0 010-.6V42.07h-4v12.35c.28 3 2.61 3.92 5.52 3.92s5.24-1 5.53-3.92a9.58 9.58 0 000-1V42.07zm-36.79 0l-2 12.37-2-12.37h-6.45l-.34 15.79h4l.11-14.66 2.67 14.66h4l2.73-14.66.12 14.66h4l-.35-15.83zm-23.91 0L59.22 57.9h4.28l2.21-14.66 2.15 14.66h4.25l-2.92-15.83zm74.69 12.74l-3.73-12.74h-5.87v15.62h3.88l-.22-13.15 4 13.15h5.63V42.07h-3.91l.22 12.74zm-35.94-8.66a2.09 2.09 0 010-.82 1.3 1.3 0 011.43-1.06 1.33 1.33 0 011.45 1.42v1h3.91V45.6c0-3.41-3.06-3.95-5.27-3.95-2.79 0-5.06.92-5.48 3.49a5.27 5.27 0 000 2.11c.68 3.2 6.25 4.13 7.06 6.15a2.13 2.13 0 010 1.16c-.12.53-.48 1.06-1.53 1.06a1.4 1.4 0 01-1.58-1.42v-1.52h-4.2v1.21c0 3.5 2.74 4.56 5.69 4.56s5.16-1 5.54-3.59a7.77 7.77 0 000-2.56c-.66-3.28-6.59-4.27-7-6.1z"/></svg>