<svg xmlns="http://www.w3.org/2000/svg" viewBox="0 0 128 128"><path d="M126.83 29.17l-28-28A4 4 0 0096 0H12A12 12 0 000 12v104a12 12 0 0012 12h104a12 12 0 0012-12V32a4 4 0 00-1.17-2.83zM24 20A12 12 0 0136 8h48a12 12 0 0112 12v16a12 12 0 01-12 12H36a12 12 0 01-12-12zm88 88a12 12 0 01-12 12H28a12 12 0 01-12-12V76a12 12 0 0112-12h72a12 12 0 0112 12z"/><rect x="68" y="20" width="24" height="16" rx="3.5" transform="rotate(90 80 28)"/><rect x="32" y="80" width="63" height="8" rx="4" transform="rotate(-180 63.5 84)"/><rect x="32" y="96" width="63" height="8" rx="4" transform="rotate(-180 63.5 100)"/></svg>