<svg xmlns="http://www.w3.org/2000/svg" viewBox="0 0 200 100"><path fill="none" d="M0 2.5h200v95H0z"/><path d="M74.31 39.17h7.35v21.98h-7.35v-9.12H60.07v9.12h-7.35V39.17h7.35v8.44h14.24v-8.44zM16.39 58.61l2.66-5.29a58.44 58.44 0 0015.32 4.28c1.74.2 4.87-.08 4.89-1.82 0-2.64-6-2.66-9.85-3.18-5-.67-12.83-2.53-12.45-7.68.41-5.68 9.67-7 15.69-6.93a37.77 37.77 0 0114 2.82l-2.15 5.05c-4.34-1.6-8.8-3.06-13.89-3.26-2.33-.08-4.93.16-4.76 1.66.26 2 5.59 2.15 8.86 2.68 5.66.93 13.18 1.7 13 8.6-.14 5.32-8.56 6.46-14.56 6.46a47.59 47.59 0 01-16.75-3.39zm110.16-16.17v18.69h-7V39.21a125.72 125.72 0 0113.75-.95c10-.26 15 2.74 15.08 7.36 0 3.73-3.51 6-8.78 7l9.4 8.51h-10.37l-10.76-9.63 1.3-2.37a20 20 0 004.7.51c3.45-.12 6.33-.91 6.35-3.81 0-2.43-2.76-3.51-5.84-3.69a49.54 49.54 0 00-7.83.3zm-20.92-3.27h-9L84 61.15h5.68L92.61 56h14.15l3.06 5.15h8.78zM95 51.74l4.5-8 4.72 8zm73.82-13.54c-4.64.1-9.35.41-13.91 1v22h6.91v-8a49.29 49.29 0 007.56.89c5.72-.06 14.45-2.51 14.23-7.91-.3-6.78-8.81-8.1-14.79-7.98zm-.59 12a30.77 30.77 0 01-6.39-.87V42.5a54.7 54.7 0 016.95-.41c3.79.12 6.69 1.48 6.69 4.08-.01 3.02-3.72 4.09-7.25 3.99z"/></svg>