<svg xmlns="http://www.w3.org/2000/svg" viewBox="0 0 128 128"><path d="M114 36a13.68 13.68 0 00-3.41.44 71.39 71.39 0 00-7.26-14.24C93.61 7.68 80 0 64 0S34.39 7.68 24.67 22.2a71.39 71.39 0 00-7.26 14.24A13.68 13.68 0 0014 36 14 14 0 000 50v28a14 14 0 0014 14 13.73 13.73 0 003.35-.42C25.66 111.57 42.94 128 64 128s38.34-16.43 46.65-36.42A14.23 14.23 0 00114 92a14 14 0 0014-14V50a14 14 0 00-14-14zm-50 84c-16.44 0-30.43-12.82-38-28.75a55.84 55.84 0 0022.3 10.88 7.65 7.65 0 00.67 1.68c.12.22.26.44.4.65a8.06 8.06 0 001 1.19 8 8 0 004.82 2.35 7.2 7.2 0 00.81 0h16a7.2 7.2 0 00.81 0 8 8 0 004.79-2.26h.05a8.06 8.06 0 001-1.19c.14-.21.28-.43.4-.65a8.25 8.25 0 00.76-2c.07-.32.13-.65.17-1a7.09 7.09 0 000-.81 8.53 8.53 0 00-.16-1.61 8 8 0 00-.81-2.2c-.12-.22-.26-.44-.4-.65a8 8 0 00-5.8-3.63 7.2 7.2 0 00-.81 0H56a7.2 7.2 0 00-.81 0 8.06 8.06 0 00-4.89 2.4c-9.4-2.24-17.42-6.73-22.84-12.59A14.14 14.14 0 0028 78V50a13.94 13.94 0 00-3.59-9.33 63.15 63.15 0 016.92-14C37 18.14 47.3 8 64 8s27 10.14 32.67 18.65a63.15 63.15 0 016.92 14A13.94 13.94 0 00100 50v28a13.92 13.92 0 003.67 9.41C96.64 105.08 81.75 120 64 120z"/></svg>