<svg data-name="ticket" xmlns="http://www.w3.org/2000/svg" viewBox="0 0 128 128"><path d="M124.47 68L60 3.53a11.78 11.78 0 00-16.64 0L31.66 15.2a4 4 0 000 5.65 7.64 7.64 0 11-10.81 10.81 4 4 0 00-5.65 0L3.53 43.33a11.78 11.78 0 000 16.67L68 124.47a11.78 11.78 0 0016.64 0l11.69-11.67a4 4 0 000-5.65 7.65 7.65 0 0110.82-10.82 4 4 0 005.65 0l11.67-11.66a11.78 11.78 0 000-16.67zm-60.8-40.61l4.5-4.5a4 4 0 015.66 5.66l-4.5 4.5a4 4 0 01-5.66-5.66zM33.32 69.06l-4.5 4.5a4 4 0 01-5.66-5.66l4.5-4.5a4 4 0 015.66 5.66zm13.5-13.51l-4.5 4.5a4 4 0 01-5.66-5.65l4.5-4.5a4 4 0 015.66 5.65zM53 47.72a4 4 0 01-2.83-6.82l4.51-4.51a4 4 0 115.65 5.66l-4.5 4.5A4 4 0 0153 47.72zm22.85 43.5a15.65 15.65 0 1115.64-15.65 15.66 15.66 0 01-15.65 15.65z"/></svg>