<svg xmlns="http://www.w3.org/2000/svg" data-name="truck" viewBox="0 0 128 128"><path d="M128 67.88c0-1.06-.34-2.27-1.58-6.06-.93-3.07-1.94-6.12-3-9.28-.52-1.55-1.06-3.15-1.61-4.82v-.05l-.28-.88c-2.54-7.86-5.66-17.53-15.94-18.7h-.26l-.78-.07H86.29A13.9 13.9 0 0080 29.47V24a12 12 0 00-12-12H12A12 12 0 000 24v72a4 4 0 004 4h11.9a16.1 16.1 0 0032.2 0H80a16 16 0 0032 0h4a12 12 0 0012-12V67.88zm-96 40.17a8.1 8.1 0 118.1-8.1 8.11 8.11 0 01-8.1 8.1zM60 68c-.37 4.46-3.77 8-7.92 8H28.46c-4.36 0-7.89-3.88-7.89-8.67h28.75a2 2 0 002-2v-4.48a2 2 0 00-2-2H24a4 4 0 01-4-4V43.9c.36-4.45 3.77-7.95 7.91-7.95h21c4.47 0 8.1 4 8.1 8.92H30.68a2 2 0 00-2 2v1.05a2 2 0 002 2H52c4.19 0 7.63 3.49 8 8zm36 40a8 8 0 118-8 8 8 0 01-8 8zM80 64V42.62A6.49 6.49 0 0186.29 36h17.14c5.55 0 7.34 3.78 10.38 13.07l.39 1.19c.56 1.69 1.1 3.3 1.63 4.87 1.06 3.14 2 6 2.9 8.87z"/></svg>