<svg xmlns="http://www.w3.org/2000/svg" viewBox="0 0 32 32"><path d="M32 7.075A12.607 12.607 0 0128.292 8.1l-.061.006a6.633 6.633 0 002.874-3.584l.013-.047a12.97 12.97 0 01-4.084 1.58l-.085.014A6.548 6.548 0 0022.165 4h-.011.001a6.563 6.563 0 00-6.563 6.563c0 .512.056 1.012.169 1.494A18.621 18.621 0 012.256 5.228l-.026-.033a6.482 6.482 0 00-.887 3.294v.014a6.55 6.55 0 002.896 5.44l.023.015a6.55 6.55 0 01-3.008-.836l.033.017v.082a6.567 6.567 0 005.226 6.428l.043.007a6.624 6.624 0 01-3.01.105l.042.007c.867 2.627 3.272 4.501 6.124 4.563h.007a13.084 13.084 0 01-8.138 2.815 13.25 13.25 0 01-1.652-.103l.065.007C2.832 28.9 6.306 30 10.036 30h.028-.001c12.075 0 18.681-10.006 18.681-18.681 0-.287-.006-.569-.019-.85a13.337 13.337 0 003.245-3.347l.03-.047z"/></svg>