<svg data-name="upload" xmlns="http://www.w3.org/2000/svg" viewBox="0 0 128 128"><g fill="#a3a8b2"><path d="M90.28 74.66L68 52.62a5.66 5.66 0 00-7.9 0l-22.33 22a5.47 5.47 0 000 7.79l1.41 1.39a5.65 5.65 0 007.89 0L57 74v33.51a5.55 5.55 0 005.6 5.49h2.8a5.55 5.55 0 005.58-5.5V74l10 9.87a5.65 5.65 0 007.89 0l1.41-1.39a5.47 5.47 0 000-7.82z"/><path d="M92.94 31.59A34 34 0 0063.67 15a34.3 34.3 0 00-33.53 27.66h-1.49a28.7 28.7 0 000 57.39h7.55V92h-7.55a20.71 20.71 0 114.14-41l4.47.91.31-4.55a26.15 26.15 0 0149.51-9.87L88.32 40l2.76-.29A26.23 26.23 0 1193.83 92H92.2v8h1.63a34.22 34.22 0 10-.89-68.43z"/></g></svg>