<svg xmlns="http://www.w3.org/2000/svg" viewBox="0 0 200 100"><path fill="none" d="M0 2.5h200v95H0z"/><path d="M138.36 37.67q.26-.4.54-.79-.28.39-.54.79z"/><path d="M138.36 37.67q.26-.4.54-.79-.28.39-.54.79zm.7-1.01a22.65 22.65 0 011.58-1.91 22.61 22.61 0 00-1.58 1.91z"/><path d="M139.06 36.66a22.65 22.65 0 011.58-1.91 22.61 22.61 0 00-1.58 1.91zm-1.36 2.07q.22-.38.45-.75-.23.37-.45.75z"/><path d="M137.7 38.73q.22-.38.45-.75-.23.37-.45.75zm19.3-3.25a34.56 34.56 0 017.81 4.05c.58-4.17.44-8.06-1-11a22.52 22.52 0 00-23.13 6.19c4.04-1.42 9.79-1.72 16.32.76zm-21.41 8.15c.08-.27.17-.54.25-.8-.08.26-.17.53-.25.8z"/><path d="M135.59 43.63c.08-.27.17-.54.25-.8-.08.26-.17.53-.25.8zm.41-1.2q.17-.49.37-1-.21.51-.37 1z"/><path d="M136 42.43q.17-.49.37-1-.21.51-.37 1zm.42-1.14q.24-.57.51-1.13-.26.55-.51 1.13z"/><path d="M136.42 41.29q.24-.57.51-1.13-.26.55-.51 1.13zM166 29.3l1 .44zm0 0l1 .44zm4.09 2.29l.65.47zm0 0l.65.47zm-.93-.59l.69.45zm0 0l.69.45zm1.84 1.25l.62.5zm0 0l.62.5zm1.27 14.26c3.18 4 5.22 8.55 5.24 13.1a22.5 22.5 0 00-5.84-26.82 32.45 32.45 0 01.6 13.72zm-8.44-18.01a22.3 22.3 0 012.12.78 22.34 22.34 0 00-2.12-.78z"/><path d="M163.83 28.5a22.3 22.3 0 012.12.78 22.34 22.34 0 00-2.12-.78zm4.35 1.88l.74.43zm0 0l.74.43zm-6.88 19.96c-8.36-6.21-18.61-9.83-25.77-6.51a22.49 22.49 0 009.27 25c3.77-.65 10.29-4.64 16.5-18.49zm5.85-20.5l.81.42zm0 0l.81.42zm10.06 30.39c.1-.19.2-.38.29-.58-.1.2-.19.35-.29.58z"/><path d="M177.21 60.23c.1-.19.2-.38.29-.58-.1.2-.19.35-.29.58zM176.19 62l.31-.49zm0 0l.31-.49zm.53-.87l.3-.53zm0 0l.3-.53zm-3.81 4.95l.39-.39zm0 0l.39-.39zm2.7-3.19l.32-.47zm0 0l.32-.47zm-1.97 2.43l.37-.4zm0 0l.37-.4zm-4.89-7.8c-3.66 7.24-8.63 12.69-15.49 14.63a22.44 22.44 0 0019.5-5.94c.06-2.42-.93-5.35-4.01-8.69zm5.59 7.02l.35-.42zm0 0l.35-.42zm.66-.81l.33-.44zm0 0l.33-.44zm-22 8.37l-.64-.13zm0 0l-.64-.13zm-3.94-1.1l.64.24zm0 0l.64.24zm1.07.37l.64.2zm0 0l.64.2zm-2.13-.82l.64.28zm0 0l.64.28zm-2-1.03l.65.36zm0 0l.65.36zm-1-.59l.66.41zm0 0l.66.41zm6.22 2.77l.64.17zm0 0l.64.17zM147 70.06l.65.32zm0 0l.65.32z"/><path d="M78.65 38.27a18.77 18.77 0 00-3.07-.2c-1.05 0-4.41-.26-7.12 2.11s-2.2 6.68-2.2 6.68v11.81s-.1 1.37 1 1.37h3.39c1.12 0 1-1.37 1-1.37v-10.9c0-3.23.16-3.88 1.34-4.86s4.37-.69 5.21-.64c.45 0 .61-.61.61-.61s.33-1.52.41-2.22.2-1.03-.57-1.17zm16.63 10.66c0 2.89-.9 7.26-5.22 7.26s-5.22-4.37-5.22-7.26.9-6.74 5.22-6.74 5.22 3.81 5.22 6.74zm-5.22-10.79a10.75 10.75 0 00-11 11.05 11 11 0 1022 0 10.75 10.75 0 00-11-11.05zM40.79 59.13s-.5-1.94-3.18-5.82a26 26 0 00-3.84-4.5 18.84 18.84 0 003.4-3.8 27.08 27.08 0 003.1-5.67c.17-.43.27-1.07-.51-1.07h-3.84a.52.52 0 00-.47.33c0 .12-.09.19-.22.47A33.84 33.84 0 0131 45.6c-1.9-2-3.86-6.35-4.08-6.8s-.61-.53-.61-.53h-4.82c-.74 0-.42.94-.42.94a23.29 23.29 0 003 6 39.86 39.86 0 003 4.14 17.52 17.52 0 00-3.67 4 24.92 24.92 0 00-3 5.72c-.17.43-.26 1.07.5 1.07h4a.59.59 0 00.45-.29c.05-.12.11-.23.23-.51.46-1.07 2.84-5.41 4.63-7.09 2.12 1.41 4.52 6.75 4.79 7.29s.61.54.61.54h4.78c.72 0 .4-.95.4-.95zm81.26 0s-.5-1.94-3.18-5.82a26 26 0 00-3.84-4.5 18.8 18.8 0 003.4-3.8 27.05 27.05 0 003.1-5.67c.17-.43.27-1.07-.51-1.07h-3.85a.52.52 0 00-.47.33c0 .12-.09.19-.22.47a33.86 33.86 0 01-4.27 6.53c-1.9-2-3.86-6.35-4.08-6.8s-.61-.53-.61-.53h-4.78c-.74 0-.43.94-.43.94a23.28 23.28 0 003 6 39.87 39.87 0 003 4.14 17.5 17.5 0 00-3.67 4 24.9 24.9 0 00-3 5.72c-.17.43-.26 1.07.5 1.07h4a.59.59 0 00.45-.29c.06-.12.11-.23.23-.51.46-1.07 2.84-5.41 4.63-7.09 2.08 1.48 4.48 6.86 4.72 7.36s.61.54.61.54h4.78c.81-.07.49-1.02.49-1.02zm-61.11-.83c-2 1.42-5.81 2-8.59 2a10.46 10.46 0 01-10.62-10.78c0-5.75 4.18-11.38 10.41-11.38 8.07 0 10.41 5.1 10.41 11.38 0 0 0 1.46-.65 1.46H47.48a5.27 5.27 0 001.72 3.6 7.24 7.24 0 005.8 1.5 10.53 10.53 0 004.47-1.62s.63-.45 1 .47.88 2.26.88 2.26.33.59-.41 1.11zm-13.5-11.18h9.86s.16-5.24-4.76-4.92a5.22 5.22 0 00-5.1 4.92zm128.95 14.59q.24-.39.46-.8a23.75 23.75 0 00-6.18-13.85c1.43-6.32.9-12-.7-15.57l-.85-.56c1.62 3.48 2.09 9 .74 15.24q-.56-.58-1.15-1.14c1.34-6.15.78-11.45-.88-14.85l-.83-.43c1.65 3.2 2 8.79.87 14.51q-.66-.59-1.37-1.14c1.7-7.3.5-11.66-.57-13.85l-.81-.32c1.23 2.53 2.09 7.08.64 13.6a36.16 36.16 0 00-3.45-2.29c-8-4.68-16.39-6.85-22.91-4.06q-.42.54-.81 1.1c6.56-3 15.1-.86 23.26 3.9a36.09 36.09 0 013.65 2.43q-.21.83-.47 1.7a36.23 36.23 0 00-3.85-2.6c-8.54-5-17.09-7.06-23.63-3.75q-.27.48-.52 1c6.54-3.41 15.09-1.33 23.68 4a44.35 44.35 0 013.91 2.7q-.28.85-.61 1.73a44.1 44.1 0 00-4.11-2.86c-8.54-5.26-17-7.34-23.56-4q-.21.51-.39 1c6.52-3.31 15-1.22 23.54 4a44.11 44.11 0 014.11 2.86q-.42 1-.91 2.14c-5.75 12.81-13.07 17.45-16.43 18.13l.6.32c5.8-.91 13.07-9 17.46-20q.75.61 1.44 1.25c-5 12.35-12.22 18-17.71 19.37l.65.28c5.47-1 12.62-5.94 17.82-18.92q.6.59 1.16 1.19c-4.9 12.26-11.79 16.81-17.45 18.29l1 .29c6-1.38 12.4-5.87 17.24-17.73a21.91 21.91 0 015.32 11.25l.47-.53a21.75 21.75 0 00-5.38-11.76c.2-.51.39-1 .58-1.57l.06-.19a21.69 21.69 0 015.59 12.46q.31-.4.59-.82A23.77 23.77 0 00169.89 50c.18-.59.35-1.17.5-1.75a23.71 23.71 0 016 13.46zm-10.16-17.5q.72.58 1.4 1.19-.2.87-.45 1.75-.69-.63-1.43-1.24.25-.91.48-1.7zm-1.51 4.71q.2-.54.4-1.09l.22-.64q.75.61 1.45 1.24c-.13.4-.27.81-.42 1.21l-.2.54q-.7-.65-1.45-1.26zm3.74 2.16c-.12.34-.25.68-.37 1q-.56-.6-1.16-1.19c.13-.35.27-.7.4-1.07s.15-.46.23-.68q.6.58 1.16 1.17c-.09.26-.17.51-.26.77zm.65-2q-.55-.6-1.14-1.18.27-.88.48-1.73.59.57 1.15 1.16-.23.85-.49 1.74z"/></svg>